<svg width="255" height="140" viewBox="0 0 255 140" fill="none" xmlns="http://www.w3.org/2000/svg">
<path d="M65.8881 80.3329C71.8702 87.7054 82.1217 87.7958 87.5524 84.894C90.2333 83.4632 90.3194 83.04 89.7957 83.003C89.0341 82.9493 89.0892 82.1936 88.817 82.0659C88.6654 81.9954 88.4276 82.1365 87.8763 82.6168C86.9011 83.4665 84.4373 83.2785 85.2126 80.8098C85.254 80.6788 85.3815 80.2522 85.5021 79.8593C85.5641 79.688 85.6261 79.4865 85.6813 79.2581C85.7054 79.1708 85.7226 79.1204 85.7226 79.1137C85.7261 79.0935 85.7261 79.0734 85.7295 79.0532C86.0879 77.4981 86.4566 74.9825 86.1568 73.1789C85.9673 72.0604 85.5779 70.633 84.968 69.397C84.1651 67.768 81.1775 63.9089 79.3994 64.7721C78.2347 65.3363 78.5517 68.0098 79.7681 69.2962C81.8391 71.4928 81.5634 73.4744 81.3153 74.5794C81.0638 75.6844 80.1885 76.3797 79.0617 76.3192C77.2836 76.2218 76.0431 74.8112 75.3643 74.0353C74.8198 73.414 69.8095 68.4666 72.3629 60.5468C72.966 58.6693 73.4243 57.9237 72.5697 57.6382C71.6496 57.3292 70.926 58.5786 70.4953 59.6333C68.3485 64.8762 68.8171 67.2474 69.2995 70.2299C69.2995 70.2299 69.3719 70.4617 69.1341 70.5557C68.9825 70.6162 68.8585 70.4919 68.8033 70.4348C65.7917 64.9669 69.9715 58.5081 68.9584 57.7793C68.445 57.4132 67.835 57.9573 67.5077 58.4712C67.3182 58.7667 63.7896 65.286 66.0225 71.9294V71.9227C66.0432 72.0503 66.0432 72.2451 65.833 72.309C65.671 72.356 65.5435 72.2754 65.4505 72.0873C62.935 67.0157 65.2024 63.2774 64.2169 62.7703C63.6759 62.4915 63.3485 62.9315 63.1624 63.526C63.0418 63.9055 59.3409 72.2485 65.8985 80.3295" fill="#2B1E47"/>
<path d="M93.064 59.4159C87.0785 52.047 76.827 51.9563 71.3997 54.8582C68.7188 56.289 68.6327 56.7122 69.1599 56.7491C69.9215 56.8029 69.8663 57.5586 70.1385 57.6862C70.2902 57.7567 70.5279 57.6157 71.0793 57.1354C72.0545 56.2856 74.5183 56.4737 73.7429 58.9424C73.7016 59.0733 73.5741 59.4999 73.4535 59.8929C73.3915 60.0641 73.3294 60.2657 73.2743 60.494C73.2502 60.5814 73.2329 60.6317 73.2329 60.6385C73.2295 60.6586 73.2295 60.6788 73.2261 60.6989C72.8677 62.254 72.499 64.7697 72.7988 66.5733C72.9848 67.6917 73.3777 69.1192 73.9876 70.3552C74.7905 71.9841 77.7781 75.8432 79.5561 74.9801C80.7243 74.4158 80.4038 71.7423 79.1874 70.4559C77.1165 68.2593 77.3921 66.2777 77.6437 65.1727C77.8952 64.0677 78.7705 63.3725 79.8973 63.4329C81.6719 63.5303 82.9159 64.941 83.5947 65.7168C84.1392 66.3382 89.1495 71.2855 86.5961 79.2019C85.9931 81.0794 85.5348 81.8251 86.3893 82.1106C87.3094 82.4196 88.033 81.1701 88.4638 80.1155C90.6105 74.8726 90.1419 72.5013 89.6594 69.5188C89.6594 69.5188 89.5871 69.2871 89.8249 69.193C89.9765 69.1326 90.1005 69.2569 90.1557 69.314C93.1674 74.7819 88.9875 81.2407 90.0006 81.9695C90.5141 82.3356 91.1239 81.7915 91.4513 81.2776C91.6409 80.982 95.1694 74.4628 92.9365 67.8193V67.8261C92.9158 67.6984 92.9158 67.5036 93.126 67.4398C93.2845 67.3928 93.4155 67.4734 93.5085 67.6615C96.024 72.7331 93.7566 76.4713 94.7422 76.9785C95.2831 77.2573 95.6105 76.8173 95.7966 76.2228C95.9172 75.8432 99.6182 67.5003 93.0606 59.4193" fill="#2B1E47"/>
<path d="M108.828 80.9683H109.868V83.2925H112.725V80.9683H113.756V86.8023H112.725V84.1892H109.868V86.8023H108.828V80.9683Z" fill="#2B1E47"/>
<path d="M117.967 84.3708C117.967 85.4993 118.467 86.077 119.421 86.077C120.375 86.077 120.858 85.4926 120.858 84.3473V80.9684H121.799V84.3641C121.799 86.0703 120.827 86.9939 119.397 86.9939C117.832 86.9939 116.902 86.0871 116.902 84.3808V80.9684H117.967V84.3708Z" fill="#2B1E47"/>
<path d="M125.674 80.7793H125.74L127.879 85.0448L130.009 80.7793H130.078L131.294 86.8014H130.264L129.613 83.5065L127.921 86.9996H127.828L126.071 83.5065L125.419 86.8014H124.447L125.674 80.7793Z" fill="#2B1E47"/>
<path d="M133.127 86.8014L136.07 80.7793H136.153L138.995 86.8014H137.886L137.403 85.7636H134.681L134.192 86.8014H133.127ZM137.035 84.9306L136.059 82.7576L135.07 84.9306H137.035Z" fill="#2B1E47"/>
<path d="M141.312 80.7793V86.8014H142.326V83.0934L146.189 86.9895H146.299V80.9674H145.276V84.6754L141.42 80.7793H141.312Z" fill="#2B1E47"/>
<path d="M150.587 80.9683H149.529V86.8023H150.587V80.9683Z" fill="#2B1E47"/>
<path d="M156.18 86.8023H155.119V81.8583H153.1V80.9683H158.189V81.8583H156.18V86.8023Z" fill="#2B1E47"/>
<path d="M159.158 86.8014L162.101 80.7793H162.184L165.023 86.8014H163.917L163.434 85.7636H160.712L160.223 86.8014H159.158ZM163.066 84.9306L162.094 82.7576L161.105 84.9306H163.066Z" fill="#2B1E47"/>
<path d="M167.34 80.9683H168.729C169.49 80.9683 170.083 81.0186 170.596 81.3747C171.044 81.6803 171.299 82.1404 171.299 82.6174C171.299 83.3831 170.834 83.9608 169.99 84.243L171.926 86.8057H170.699L168.88 84.384H168.374V86.8057H167.34V80.9683ZM168.853 83.6317C169.783 83.6317 170.248 83.2925 170.248 82.7013C170.248 82.0565 169.748 81.8012 168.76 81.8012H168.38V83.6317H168.853Z" fill="#2B1E47"/>
<path d="M175.499 80.9684H174.442V86.8025H175.499V80.9684Z" fill="#2B1E47"/>
<path d="M177.83 86.8014L180.772 80.7793H180.855L183.694 86.8014H182.585L182.102 85.7636H179.38L178.891 86.8014H177.826H177.83ZM181.734 84.9306L180.762 82.7576L179.773 84.9306H181.734Z" fill="#2B1E47"/>
<path d="M186.012 80.7793H186.122L189.978 84.6753V80.9674H191.002V86.9895H190.892L187.029 83.0934V86.8014H186.012V80.7793Z" fill="#2B1E47"/>
<path d="M108.828 53.0005H114.145V62.5627L121.598 53.0005H128.001L119.496 63.4628L128.666 74.9764H122.171L114.145 64.86V74.9764H108.828V53.0005Z" fill="#2B1E47"/>
<path d="M139.142 53.0005H133.76V74.9764H139.142V53.0005Z" fill="#2B1E47"/>
<path d="M153.378 53.0005C156.244 53.0005 158.474 53.1852 160.414 54.5522C162.102 55.7311 163.057 57.5616 163.057 59.4559C163.057 62.2167 161.592 64.3596 158.853 65.5418L165.731 74.9764H159.587L153.567 66.3479H152.802V74.9764H147.578V53.0005H153.378ZM152.805 57.0041V63.09H153.95C156.689 63.09 158.123 61.9716 158.123 59.9866C158.123 57.7833 156.658 57.0074 153.694 57.0074H152.802L152.805 57.0041Z" fill="#2B1E47"/>
<path d="M171.055 53.0005H176.375V62.5627L183.825 53.0005H190.228L181.723 63.4628L190.896 74.9764H184.397L176.375 64.86V74.9764H171.055V53.0005Z" fill="#2B1E47"/>
</svg>
