<svg width="40" height="40" viewBox="0 0 40 40" fill="none" xmlns="http://www.w3.org/2000/svg">
<path d="M0 20C0 8.95431 8.95431 0 20 0C31.0457 0 40 8.95431 40 20C40 31.0457 31.0457 40 20 40C8.95431 40 0 31.0457 0 20Z" fill="#FAFAFA"/>
<path d="M19.3436 12.5868L15.1788 10.504V27.9969L19.3436 30.0797V12.5868Z" fill="#2B1E47"/>
<path d="M14.3456 10.504L9.3479 13.0032V30.4962L14.3456 27.9969V10.504Z" fill="#2B1E47"/>
<path d="M25.1753 10.504V27.9969L30.1738 30.4962V13.0032L25.1753 10.504Z" fill="#2B1E47"/>
<path d="M24.3424 10.504L20.1776 12.5868V30.0797L24.3424 27.9969V10.504Z" fill="#2B1E47"/>
</svg>
