<svg width="40" height="40" viewBox="0 0 40 40" fill="none" xmlns="http://www.w3.org/2000/svg">
<path d="M0 20C0 8.95431 8.95431 0 20 0C31.0457 0 40 8.95431 40 20C40 31.0457 31.0457 40 20 40C8.95431 40 0 31.0457 0 20Z" fill="#FAFAFA"/>
<path d="M18.6673 19.3055V10.504H14.3618V19.3532L16.6267 17.4469L18.6673 19.3055Z" fill="#2B1E47"/>
<path d="M19.5003 10.504V21.1907L16.605 18.5547L13.5284 21.143V10.504H12.8354C10.8425 10.504 9.50342 11.843 9.50342 13.836V25.9516C10.0823 25.3985 10.9425 25.0821 12.0026 25.0821H29.4956V10.5047L19.5003 10.504Z" fill="#2B1E47"/>
<path d="M9.51946 27.968C9.52024 27.9726 9.52102 27.9773 9.5218 27.982H9.51868C9.60227 28.8281 10.1226 30.4961 12.907 30.4961H29.4952V25.9148H12.0023C10.4491 25.9148 9.52102 26.6828 9.51946 27.968Z" fill="#2B1E47"/>
</svg>
