<svg width="40" height="40" viewBox="0 0 40 40" fill="none" xmlns="http://www.w3.org/2000/svg">
<path d="M0 20C0 8.95431 8.95431 0 20 0C31.0457 0 40 8.95431 40 20C40 31.0457 31.0457 40 20 40C8.95431 40 0 31.0457 0 20Z" fill="#FAFAFA"/>
<path d="M29.2238 14.8739L23.8683 18.0943V14.4575C23.8683 13.7677 23.3089 13.2083 22.6191 13.2083H9.29097C8.60112 13.2083 8.04175 13.7677 8.04175 14.4575V26.12C8.04175 26.8099 8.60112 27.3693 9.29097 27.3693H22.6191C23.3097 27.3693 23.8683 26.8099 23.8683 26.12V22.4138L29.3417 25.7036H31.366V14.8747H29.2246L29.2238 14.8739Z" fill="#2B1E47"/>
</svg>
