<?xml version="1.0" encoding="UTF-8"?>
<svg xmlns="http://www.w3.org/2000/svg" width="287" height="288" viewBox="0 0 287 288" fill="none">
  <path d="M168.26 54.1777L179.205 40.7876L165.218 29.3377L163.398 27.8525V25.002V15.9475H146.082V25.002V43.0871H154.68L168.26 54.1777Z" fill="black"></path>
  <path d="M225.165 91.2102L224.95 108.768L242.266 108.984L242.481 90.8988L242.505 88.5274L244.732 86.7548L251.798 81.1257L241.02 67.5918L233.955 73.2209L219.824 84.5032L225.165 91.2102Z" fill="black"></path>
  <path d="M276.202 111.715L269.137 117.344L254.982 128.626L265.784 142.16L279.915 130.878L286.98 125.248L276.202 111.715Z" fill="black"></path>
  <path d="M215.92 137.657L201.79 148.915L200.592 157.874L198.197 175.815L215.346 178.114L217.741 160.173L218.028 158.113L226.722 151.166L233.787 145.537L223.01 132.003L215.92 137.657Z" fill="black"></path>
  <path d="M242.529 127.5L228.398 138.782L233.787 145.537L239.176 152.292L253.331 141.034L260.396 135.381L249.594 121.871L242.529 127.5Z" fill="black"></path>
  <path d="M233.404 167.982L231.488 176.342L217.645 187.121L228.254 200.775L242.529 189.684L244.397 188.223L247.175 188.87L255.989 190.882L259.845 174.018L251.031 172.006L233.404 167.982Z" fill="black"></path>
  <path d="M220.854 223.004L216.998 239.867L234.625 243.892L243.439 245.904L247.295 229.04L238.481 227.028L220.854 223.004Z" fill="black"></path>
  <path d="M222.77 214.548L213.957 212.536L196.329 208.512L198.245 200.08L189.432 198.068L171.804 194.044L164.045 198.691L148.549 208.009L157.434 222.836L172.954 213.542L174.75 212.464L185.6 214.955L194.413 216.967L192.473 225.399L210.101 229.423L218.914 231.436L222.77 214.548Z" fill="black"></path>
  <path d="M176.619 230.645L168.883 234.382L151.831 230.262L147.783 247.077L165.363 251.317L167.638 251.868L168.883 254.455L172.811 262.599L188.403 255.078L184.475 246.934L176.619 230.645Z" fill="black"></path>
  <path d="M125.773 255.126L110.205 262.647L118.037 278.936L121.965 287.08L137.556 279.583L133.628 271.414L125.773 255.126Z" fill="black"></path>
  <path d="M110.086 222.549L114.014 230.693L129.605 223.171L125.677 215.027L117.845 198.739L109.367 195.577L92.4344 189.253L86.375 205.47L103.308 211.793L105.272 212.512L110.086 222.549Z" fill="black"></path>
  <path d="M117.988 258.886L133.58 251.389L129.652 243.221L121.82 226.932L106.229 234.454L114.06 250.742L117.988 258.886Z" fill="black"></path>
  <path d="M77.7032 150.855L72.0989 133.68L55.6451 139.046L61.2734 156.245L61.9201 158.233L57.0821 168.245L53.1543 176.39L68.7458 183.911L72.6737 175.767L80.5054 159.454L77.7032 150.855Z" fill="black"></path>
  <path d="M17.9488 209.614L14.0449 217.758L29.6125 225.28L33.5404 217.135L41.3961 200.847L25.8045 193.325L17.9488 209.614Z" fill="black"></path>
  <path d="M37.5158 188.941L33.5879 197.086L49.1795 204.583L53.1073 196.439L60.9629 180.15L45.3714 172.629L37.5158 188.941Z" fill="black"></path>
  <path d="M92.9368 98.2284L102.852 83.1376L88.4102 73.6279L78.4708 88.7188L77.3213 90.4674L66.4719 92.9347L57.6582 94.9468L61.5141 111.834L70.3278 109.822L87.9552 105.798L92.9368 98.2284Z" fill="black"></path>
  <path d="M77.0819 205.685L61.3945 213.015L69.0346 229.4L70.0405 231.531L68.7951 234.118L64.8673 242.263L80.4589 249.76L84.3866 241.616L92.2423 225.327L84.4825 221.591L77.0819 205.685Z" fill="black"></path>
  <path d="M26.1384 160.029L43.7657 156.005L41.8736 147.645L49.6574 131.932L34.1617 124.219L26.1144 140.411L25.0846 142.519L22.3064 143.166L13.4688 145.178L17.3247 162.042L26.1384 160.029Z" fill="black"></path>
  <path d="M31.2169 100.983L33.1329 109.415L41.9465 107.427L59.5979 103.403L55.7418 86.5152L38.1145 90.5395L29.3008 92.5516L31.0492 100.265L27.3609 84.1199L9.73357 88.1441L0.919922 90.1562L4.77587 107.02L13.5895 105.008L31.2169 100.983Z" fill="black"></path>
  <path d="M67.7408 74.8976L73.1057 68.1906L90.254 64.5017L86.6136 47.5904L68.9384 51.399L66.6392 51.8781L64.3878 50.1055L57.3225 44.4763L46.5449 57.9863L53.6103 63.6393L67.7408 74.8976Z" fill="black"></path>
  <path d="M102.922 30.7748L113.724 17.2649L99.5695 5.98267L92.5041 0.353516L81.7266 13.8634L88.7919 19.5165L102.922 30.7748Z" fill="black"></path>
  <path d="M120.407 66.8732L134.538 78.1315L143.543 77.3171L161.553 75.6643L159.973 58.4415L141.986 60.0943L139.903 60.2859L131.209 53.3394L124.119 47.7102L113.342 61.2202L120.407 66.8732Z" fill="black"></path>
  <path d="M97.5352 37.5536L104.6 43.1828L118.731 54.465L124.12 47.71L129.533 40.9311L115.378 29.6489L108.313 24.0198L97.5352 37.5536Z" fill="black"></path>
  <path d="M191.468 103.858L203.994 116.912L216.472 104.936L203.97 91.8808L202.509 90.3717V79.2572V70.2026H185.217V79.2572V97.3422L191.468 103.858Z" fill="black"></path>
  <path d="M211.155 52.1176V43.0871H219.825V25.002V15.9475H202.509V25.002V43.0871H193.863V52.1176V70.2028H211.155V52.1176Z" fill="black"></path>
  <path d="M160.212 158.64L163.853 166.21L179.444 158.712L175.516 150.568L169.026 137.082L177.217 138.95L181.073 122.087L172.259 120.075L157.673 116.745L164.236 111.523L153.434 97.9893L146.369 103.618L134.681 112.936V104.553H117.365V113.583V128.53L110.803 123.308L100.025 136.842L107.091 142.471L118.778 151.789L110.587 153.658L114.443 170.521L123.257 168.509L137.843 165.18L134.202 172.749L149.794 180.246L153.722 172.102L160.212 158.64ZM145.962 148.316L139.998 160.676L137.028 147.621L123.64 150.664L131.975 140.196L121.245 131.644H134.633V117.919L142.968 128.387L153.698 119.835L150.728 132.89L164.092 135.956L152.045 141.753L157.985 154.113L145.962 148.316Z" fill="black"></path>
</svg>
