<?xml version="1.0" encoding="UTF-8"?>
<svg xmlns="http://www.w3.org/2000/svg" width="292" height="291" viewBox="0 0 292 291" fill="none">
  <path d="M235.573 97.0521L249.704 85.7699L256.769 80.1408L245.991 66.6069L238.926 72.236L224.771 83.5183L235.573 97.0521Z" fill="black"></path>
  <path d="M186.188 36.8323L199.72 26.0292L194.068 18.9628L182.811 4.83008L169.279 15.6093L180.56 29.766L186.188 36.8323Z" fill="black"></path>
  <path d="M281.127 116.191L274.062 121.82L259.932 133.103L270.733 146.636L284.864 135.354L291.929 129.725L281.127 116.191Z" fill="black"></path>
  <path d="M206.02 166.71L212.942 161.176L217.516 166.925L231.671 155.643L238.736 150.014L227.934 136.48L220.869 142.109L206.858 153.296L202.284 147.547L195.218 153.2L181.088 164.458L191.865 177.992L206.02 166.71Z" fill="black"></path>
  <path d="M247.477 131.977L233.322 143.235L244.124 156.769L258.254 145.511L265.32 139.858L254.542 126.324L247.477 131.977Z" fill="black"></path>
  <path d="M262.711 192.556L266.566 175.668L257.753 173.656L240.125 169.632L236.27 186.519L253.897 190.544L262.711 192.556Z" fill="black"></path>
  <path d="M252.555 110.347L269.416 114.203L271.427 105.388L275.451 87.7581L258.59 83.9016L254.566 101.532L252.555 110.347Z" fill="black"></path>
  <path d="M223.263 228.031L225.203 219.6L216.39 217.587L198.762 213.563L194.906 230.451L212.534 234.475L221.347 236.487L219.431 244.919L237.059 248.943L245.872 250.955L249.728 234.068L240.891 232.056L223.263 228.031Z" fill="black"></path>
  <path d="M191.864 203.119L174.405 199.143L176.033 191.981L167.22 189.969L149.592 185.945L145.736 202.808L163.364 206.832L172.01 208.82L170.381 215.959L188.008 219.983L196.822 221.995L198.762 213.563L200.678 205.132L191.864 203.119Z" fill="black"></path>
  <path d="M182.357 235.337L166.766 242.835L174.597 259.123L178.525 267.268L194.117 259.77L190.189 251.626L182.357 235.337Z" fill="black"></path>
  <path d="M244.602 204.173L236.459 208.078L243.955 223.672L252.098 219.743L268.385 211.91L260.888 196.316L244.602 204.173Z" fill="black"></path>
  <path d="M126.193 258.573L110.602 266.07L118.457 282.383L122.385 290.527L137.977 283.005L134.049 274.861L126.193 258.573Z" fill="black"></path>
  <path d="M110.505 225.995L114.433 234.139L130.025 226.618L126.097 218.474L118.313 202.329L124.923 199.143L121.02 190.999L113.164 174.71L97.5723 182.208L105.428 198.52L109.26 206.497L102.65 209.683L110.505 225.995Z" fill="black"></path>
  <path d="M118.41 262.333L134.002 254.812L130.074 246.667L122.219 230.379L106.627 237.876L114.483 254.189L118.41 262.333Z" fill="black"></path>
  <path d="M71.5387 239.912L67.6348 248.057L83.2264 255.554L87.1302 247.41L94.9859 231.121L79.3943 223.6L71.5387 239.912Z" fill="black"></path>
  <path d="M150.024 256.441L142.504 272.035L150.647 275.939L166.933 283.796L174.453 268.202L158.167 260.369L150.024 256.441Z" fill="black"></path>
  <path d="M34.8469 198.353L49.6003 205.443L53.528 197.299L61.3598 181.01L69.1675 184.771L73.0954 176.627L80.8552 160.482L87.4655 163.668L91.3933 155.523L99.249 139.211L83.6574 131.713L75.8018 148.002L71.9457 156.003L65.3355 152.817L57.5038 169.105L53.576 177.25L59.4917 180.1L45.7682 173.513L37.9365 189.801L34.0087 197.946L26.2249 194.185L18.3692 210.473L14.4414 218.642L30.0329 226.139L33.9608 217.995L41.8164 201.706L34.8469 198.353Z" fill="black"></path>
  <path d="M26.1775 164.194L43.8048 160.17L39.9488 143.307L22.3215 147.331L13.5078 149.343L17.3638 166.207L26.1775 164.194Z" fill="black"></path>
  <path d="M58.3179 219.001L41.457 222.834L43.4688 231.648L47.4924 249.279L64.3534 245.446L60.3298 227.816L58.3179 219.001Z" fill="black"></path>
  <path d="M16.0232 104.262L33.6505 100.238L29.7945 83.3748L12.1672 87.399L3.35352 89.4111L7.20946 106.275L16.0232 104.262Z" fill="black"></path>
  <path d="M114.457 89.339L96.8054 93.3632L88.1595 95.3275L86.5308 88.1892L68.9035 92.2135L60.0898 94.2016L63.9458 111.089L72.7594 109.077L90.2191 105.077L91.8477 112.239L100.661 110.227L118.289 106.202L114.457 89.339Z" fill="black"></path>
  <path d="M44.3806 106.682L62.0079 102.657L58.1759 85.77L40.5486 89.7942L31.7109 91.8063L35.5669 108.694L44.3806 106.682Z" fill="black"></path>
  <path d="M67.3483 75.9249L78.1497 62.3911L63.9953 51.1089L56.9299 45.4797L46.1523 59.0136L53.2177 64.6427L67.3483 75.9249Z" fill="black"></path>
  <path d="M24.7884 131.019L30.4407 123.952L16.9088 113.149L11.2565 120.239L0 134.372L13.5079 145.151L24.7884 131.019Z" fill="black"></path>
  <path d="M107.872 30.6283L118.65 17.0945L104.519 5.81225L97.4539 0.183105L86.6523 13.6931L93.7176 19.3461L107.872 30.6283Z" fill="black"></path>
  <path d="M125.354 66.7028L139.365 77.8653L134.791 83.6142L141.856 89.2433L155.987 100.526L166.764 86.9917L152.634 75.7094L145.688 70.1761L150.263 64.4511L136.132 53.1689L129.067 47.5398L118.289 61.0498L125.354 66.7028Z" fill="black"></path>
  <path d="M109.548 43.0124L123.679 54.2946L129.068 47.5396L134.456 40.7607L120.326 29.4785L113.26 23.8494L107.872 30.6282L102.459 37.3832L109.548 43.0124Z" fill="black"></path>
  <path d="M165.209 23.7296V14.675H147.893V23.7296V41.8147H165.209V23.7296Z" fill="black"></path>
  <path d="M87.3226 42.8688V25.5742H78.2934H60.2109V42.8688H78.2934H87.3226Z" fill="black"></path>
  <path d="M191.266 81.4104V99.3278H183.938V108.358V126.443H201.23V108.358V99.4954H208.582V81.4104V72.3558H217.228V54.2707V45.2402H225.874V27.1551V18.1006H208.582V27.1551V45.2402H199.912V54.2707V72.3558H191.266V81.4104Z" fill="black"></path>
  <path d="M181.998 126.563L173.184 124.551L158.598 121.222L165.161 116L154.383 102.466L147.318 108.095L135.63 117.413V109.029H118.338V118.06V133.007L111.776 127.785L100.998 141.319L108.063 146.948L119.751 156.266L111.56 158.134L115.416 174.998L124.23 172.986L138.815 169.656L135.175 177.226L150.767 184.723L154.694 176.579L161.185 163.093L164.825 170.662L180.417 163.165L176.489 155.02L169.999 141.534L178.189 143.403L181.998 126.563ZM153.018 146.253L158.981 158.613L146.934 152.817L140.971 165.177L138.001 152.122L124.637 155.164L132.972 144.696L122.242 136.145H135.63V122.419L143.965 132.887L154.694 124.336L151.725 137.39L165.113 140.433L153.018 146.253Z" fill="black"></path>
</svg>
