<?xml version="1.0" encoding="UTF-8"?>
<svg xmlns="http://www.w3.org/2000/svg" width="282" height="278" viewBox="0 0 282 278" fill="none">
  <path d="M230.711 127.33L237.776 121.701L226.999 108.167L219.933 113.796L207.431 123.761L204.869 111.377L187.912 114.898L191.6 132.6L193.445 141.462L210.377 137.941L208.557 129.078L208.389 128.336L216.58 138.612L230.711 127.33Z" fill="black"></path>
  <path d="M160.825 33.9101L167.89 28.2809L157.089 14.7471L150.023 20.4002L135.893 31.6584L146.67 45.1923L160.825 33.9101Z" fill="black"></path>
  <path d="M195.982 36.3055L206.017 28.281V32.0657V50.1508H223.333V32.0657V23.0112H212.627L217.178 19.3702L206.376 5.86032L199.311 11.4895L191.575 17.6695V11.6092V2.55469H174.283V11.6092V29.6943H190.713L195.982 36.3055Z" fill="black"></path>
  <path d="M214.593 185.514L205.779 183.501L190.188 179.932L198.283 170.207L184.966 159.14L173.422 173.058L167.65 180.028L180.967 191.071L186.739 184.124L187.218 183.525L184.296 196.341L201.923 200.365L210.737 202.377L214.593 185.514Z" fill="black"></path>
  <path d="M213.73 83.4465L231.358 87.4707L240.172 89.4829L244.028 72.5954L235.214 70.5833L217.587 66.5591L213.73 83.4465Z" fill="black"></path>
  <path d="M277.868 122.467L281.724 105.604L272.91 103.592L263.258 101.388L267.977 97.6032L275.042 91.974L264.264 78.4402L257.199 84.0693L243.068 95.3515L253.295 108.191L251.427 116.431L263.953 119.305L261.007 121.653L246.877 132.935L257.654 146.469L271.785 135.187L278.874 129.558L272.192 121.174L277.868 122.467Z" fill="black"></path>
  <path d="M234.613 190.065L230.949 206.09L223.357 209.755L228.937 221.348L225.249 220.51L207.622 216.486L203.766 233.349L221.393 237.373L230.207 239.386L232.578 228.942L235.116 234.212L250.708 226.69L246.78 218.546L242.493 209.635L248.385 210.976L257.198 212.988L261.054 196.101L252.241 194.089L234.613 190.065Z" fill="black"></path>
  <path d="M237.416 184.148L253.008 176.651L249.08 168.506L241.224 152.194L225.633 159.715L233.488 176.004L237.416 184.148Z" fill="black"></path>
  <path d="M148.514 184.412L130.432 184.076L121.402 183.909L121.067 201.203L130.12 201.371L130.863 201.395L119.031 207.096L126.887 223.384L130.791 231.529L146.382 224.007L142.478 215.863L135.533 201.467L148.179 201.73L148.514 184.412Z" fill="black"></path>
  <path d="M155.316 242.524L140.515 249.662L132.898 245.997L127.318 257.59L125.665 254.189L117.834 237.876L102.242 245.398L110.074 261.687L114.002 269.831L123.654 265.184L121.115 270.43L136.707 277.951L140.634 269.807L144.921 260.872L147.556 266.334L151.484 274.478L167.075 266.98L163.148 258.836L155.316 242.524Z" fill="black"></path>
  <path d="M62.1017 179.046L58.1738 187.19L73.7654 194.712L77.6932 186.567L84.6148 172.171L92.3028 182.208L106.05 171.692L95.0571 157.32L89.5486 150.158L75.8012 160.673L81.3097 167.86L81.7648 168.458L69.9334 162.757L62.1017 179.046Z" fill="black"></path>
  <path d="M165.59 232.87L161.662 241.014L177.254 248.536L181.182 240.392L189.037 224.103L173.446 216.582L165.59 232.87Z" fill="black"></path>
  <path d="M60.2087 117.629L75.7763 114.083L72.7347 126.348L89.5237 130.54L93.8827 112.982L96.0621 104.215L79.273 100.023L77.0936 108.814L76.902 109.532L73.9801 96.741L56.3527 100.765L47.5391 102.777L51.3951 119.641L60.2087 117.629Z" fill="black"></path>
  <path d="M78.8176 215.24L70.0039 217.252L73.8359 234.14L82.6496 232.128L100.301 228.103L96.4449 211.216L78.8176 215.24Z" fill="black"></path>
  <path d="M48.1628 197.85L35.613 200.724L37.2655 197.299L45.1212 181.01L29.5296 173.513L21.674 189.801L17.7461 197.946L27.398 202.593L21.7218 203.886L25.5778 220.773L34.3915 218.761L44.0434 216.558L41.4089 221.995L37.4811 230.163L53.0726 237.661L57.0005 229.517L64.8561 213.228L50.0549 206.09L48.1628 197.85Z" fill="black"></path>
  <path d="M27.7089 108.191L32.9779 101.579L22.9188 93.5549L26.6072 92.7165L44.2345 88.6923L40.3785 71.8289L22.7512 75.8531L13.9375 77.8653L16.3325 88.3091L11.758 84.6681L0.980469 98.202L8.0458 103.855L15.7817 110.011L9.88994 111.377L1.07629 113.389L4.90833 130.252L13.722 128.24L31.3493 124.216L27.7089 108.191Z" fill="black"></path>
  <path d="M113.978 47.4441L106.912 41.8149L96.1348 55.3489L103.2 60.978L115.678 70.9427L104.182 76.2126L111.391 91.9502L127.821 84.4047L136.036 80.6441L128.827 64.9064L120.612 68.6911L119.941 69.0025L128.108 58.7264L113.978 47.4441Z" fill="black"></path>
  <path d="M31.4207 130.755L20.6191 144.289L27.6844 149.918L41.839 161.201L52.6165 147.667L38.486 136.408L31.4207 130.755Z" fill="black"></path>
  <path d="M80.0651 42.5336L90.3157 29.6943H98.7462V16.8311L101.716 19.1786L115.847 30.4608L126.648 16.927L112.494 5.64477L105.428 0.015625L98.7462 8.37547V2.55472H81.4541V11.6092V21.5022L76.712 17.7174L69.6467 12.0883L58.8691 25.6222L65.9344 31.2514L80.0651 42.5336Z" fill="black"></path>
  <path d="M191.576 59.2771V50.2466H174.284V59.2771V75.2543L162.98 69.5533L155.172 84.9795L171.314 93.1478L179.386 97.2199L187.193 81.7937L179.122 77.6976L178.451 77.3623H191.576V59.2771Z" fill="black"></path>
  <path d="M74.9859 55.7081V46.6536H57.6699V55.7081V73.7931H74.9859V55.7081Z" fill="black"></path>
  <path d="M167.625 130.013L175.816 131.881L179.672 115.018L170.858 113.006L156.273 109.676L162.835 104.454L152.057 90.9202L144.992 96.5493L133.304 105.867V97.4835H116.012V106.514V121.485L109.45 116.239L98.6484 129.773L105.714 135.402L117.401 144.72L109.21 146.589L113.066 163.452L121.88 161.44L136.466 158.111L132.825 165.68L148.417 173.177L152.345 165.033L158.835 151.547L162.476 159.117L178.067 151.595L174.139 143.451L167.625 130.013ZM150.668 134.708L156.632 147.068L144.561 141.271L138.621 153.631L135.651 140.576L122.263 143.642L130.622 133.175L119.892 124.623H133.28V110.898L141.615 121.365L152.345 112.814L149.375 125.869L162.739 128.911L150.668 134.708Z" fill="black"></path>
</svg>
