<?xml version="1.0" encoding="UTF-8"?>
<svg xmlns="http://www.w3.org/2000/svg" width="293" height="291" viewBox="0 0 293 291" fill="none">
  <path d="M200.912 45.8474L208.001 40.1944L197.176 26.6125L190.087 32.2657L175.908 43.5719L186.734 57.1536L200.912 45.8474Z" fill="black"></path>
  <path d="M211.185 138.908L200.383 125.35L193.294 131.003L179.115 142.309L189.917 155.867L204.095 144.561L211.185 138.908Z" fill="black"></path>
  <path d="M150.664 19.2109L157.753 13.5578L146.928 0L139.839 5.65305L125.66 16.9592L136.486 30.5171L150.664 19.2109Z" fill="black"></path>
  <path d="M222.18 28.8882L229.269 23.2351L218.444 9.65332L211.354 15.3064L197.176 26.6126L208.001 40.1944L222.18 28.8882Z" fill="black"></path>
  <path d="M164.243 168.946L160.387 185.857L178.062 189.905L186.9 191.917L190.756 174.982L181.918 172.97L164.243 168.946Z" fill="black"></path>
  <path d="M225.053 65.9206L242.728 69.9448L251.566 71.9809L255.422 55.0456L246.584 53.0335L228.909 49.0093L225.053 65.9206Z" fill="black"></path>
  <path d="M217.005 76.9156L200.073 73.0591L196.049 90.737L194.037 99.5758L201.965 101.372V104.606V122.739H219.305V104.606V95.5277H212.742L212.958 94.5935L217.005 76.9156Z" fill="black"></path>
  <path d="M283.61 114.978L265.935 110.93L257.098 108.918L239.422 104.894L235.566 121.805L253.242 125.829L262.079 127.865L279.755 131.889L288.592 133.902L292.448 116.99L283.61 114.978Z" fill="black"></path>
  <path d="M107.267 197.379L99.4109 181.042L83.7715 188.564L91.6511 204.924L95.5789 213.093L101.495 210.242L101.71 211.176L105.734 228.854L122.667 224.998L118.619 207.32L116.607 198.481L108.68 200.301L107.267 197.379Z" fill="black"></path>
  <path d="M238.968 209.116L231.112 192.78L215.473 200.301L223.352 216.638L227.28 224.806L242.896 217.285L238.968 209.116Z" fill="black"></path>
  <path d="M118.521 181.45L126.401 197.786L130.329 205.954L145.968 198.433L142.017 190.265L134.161 173.928L118.521 181.45Z" fill="black"></path>
  <path d="M268.235 149.711L252.596 157.232L260.475 173.569L264.403 181.737L280.043 174.216L276.115 166.047L268.235 149.711Z" fill="black"></path>
  <path d="M238.991 157.783L231.447 142.166L215.113 150.022L206.946 153.951L210.491 161.281L207.952 163.293L193.773 174.599L204.599 188.181L218.777 176.875L225.867 171.221L221.771 166.071L222.657 165.664L238.991 157.783Z" fill="black"></path>
  <path d="M242.895 217.285L227.279 224.806L235.135 241.143L239.087 249.311L254.702 241.789L250.774 233.621L242.895 217.285Z" fill="black"></path>
  <path d="M133.707 249.862L129.779 258.054L145.419 265.575L149.347 257.407L157.226 241.071L141.587 233.525L133.707 249.862Z" fill="black"></path>
  <path d="M99.6981 178L103.626 169.832L111.505 153.496L95.866 145.974L88.0104 162.311L84.0586 170.479L99.6981 178Z" fill="black"></path>
  <path d="M190.542 252.065L186.59 260.234L202.229 267.755L206.157 259.587L214.037 243.25L198.397 235.729L190.542 252.065Z" fill="black"></path>
  <path d="M197.007 209.787L180.673 201.906L172.506 197.978L168.962 205.308L165.824 204.589L148.149 200.565L144.293 217.476L161.968 221.5L170.806 223.536L172.267 217.117L173.129 217.548L189.463 225.405L197.007 209.787Z" fill="black"></path>
  <path d="M121.922 274.39L117.971 282.559L133.61 290.08L137.538 281.912L145.418 265.575L129.778 258.054L121.922 274.39Z" fill="black"></path>
  <path d="M51.8454 200.517L43.0078 202.529L46.8877 219.44L55.7254 217.428L73.4005 213.404L69.5446 196.469L51.8454 200.517Z" fill="black"></path>
  <path d="M113.35 123.051L109.47 106.139L91.7947 110.163L82.957 112.199L86.8369 129.111L95.6746 127.099L113.35 123.051Z" fill="black"></path>
  <path d="M85.5661 246.293L76.7285 248.305L80.5845 265.24L89.4221 263.228L107.121 259.18L103.241 242.268L85.5661 246.293Z" fill="black"></path>
  <path d="M25.3318 206.553L16.4941 208.589L20.3501 225.501L29.2117 223.489L46.8869 219.44L43.007 202.529L25.3318 206.553Z" fill="black"></path>
  <path d="M151.981 58.6149L151.358 57.8483L140.054 43.6917L126.498 54.4948L137.803 68.6754L143.455 75.7658L149.802 70.6875L152.34 72.6997L166.519 84.0058L177.32 70.448L163.142 59.1419L156.053 53.4887L151.981 58.6149Z" fill="black"></path>
  <path d="M28.5892 119.29L42.7678 130.596L53.5932 117.038L39.4148 105.732L32.3255 100.079L21.5 113.637L28.5892 119.29Z" fill="black"></path>
  <path d="M138.281 105.516L149.107 91.9347L134.928 80.6285L127.839 74.9753L117.014 88.5572L124.103 94.2102L138.281 105.516Z" fill="black"></path>
  <path d="M38.816 171.94L24.6374 160.634L17.5482 154.981L6.72266 168.563L13.812 174.216L27.9904 185.522L38.816 171.94Z" fill="black"></path>
  <path d="M75.0056 150.023L76.3946 147.1L84.2743 130.764L68.6348 123.242L60.7792 139.579L56.8274 147.747L62.7431 150.597L62.1443 151.364L50.8398 165.545L64.3957 176.348L75.7001 162.167L81.3523 155.077L75.0056 150.023Z" fill="black"></path>
  <path d="M21.5002 113.637L32.3256 100.079L18.1472 88.7725L11.0579 83.1194L0.232422 96.6772L7.32165 102.33L21.5002 113.637Z" fill="black"></path>
  <path d="M105.732 36.8887V27.8342H88.3926V36.8887V55.0218H105.732V36.8887Z" fill="black"></path>
  <path d="M184.913 95.9349V86.8804H167.549V95.9349V114.068H184.913V95.9349Z" fill="black"></path>
  <path d="M53.5938 59.5731V50.5186H36.2539V59.5731V77.7061H53.5938V59.5731Z" fill="black"></path>
  <path d="M93.3026 100.486V92.3417L96.464 91.6231L114.139 87.5749L110.283 70.6636L92.5841 74.7118L83.7464 76.7239L85.2074 83.1195H84.2494H66.1191V100.486H84.2494H93.3026Z" fill="black"></path>
  <path d="M105.732 9.67732V0.622803H88.3926V9.67732V27.8343H105.732V9.67732Z" fill="black"></path>
  <path d="M170.207 138.573L178.398 140.441L182.254 123.577L173.441 121.565L158.855 118.236L165.417 113.014L154.616 99.48L147.551 105.109L135.863 114.427V106.043H118.571V115.074V130.021L112.009 124.799L101.207 138.333L108.272 143.962L119.96 153.28L111.769 155.149L115.625 172.012L124.439 170L139.024 166.67L135.384 174.24L150.975 181.737L154.903 173.593L161.394 160.107L165.034 167.676L180.626 160.179L176.698 152.035L170.207 138.573ZM153.251 143.267L159.19 155.628L147.12 149.831L141.18 162.191L138.21 149.136L124.846 152.178L133.181 141.71L122.451 133.159H135.839V119.433L144.174 129.901L154.903 121.35L151.933 134.405L165.322 137.447L153.251 143.267Z" fill="black"></path>
</svg>
