<?xml version="1.0" encoding="UTF-8"?>
<svg xmlns="http://www.w3.org/2000/svg" width="266" height="262" viewBox="0 0 266 262" fill="none">
  <path d="M178.959 66.0979L173.331 59.0315L159.799 69.8107L165.427 76.9009L174.528 88.2789L167.75 93.6685L179.031 107.801L184.659 114.892L198.191 104.089L192.563 97.0221L183.486 85.6441L190.239 80.2305L178.959 66.0979Z" fill="black"></path>
  <path d="M212.321 43.102L214.261 25.9033L196.275 23.8672L187.293 22.8611L185.354 40.0599L194.335 41.066L212.321 43.102Z" fill="black"></path>
  <path d="M257.206 95.9443L259.146 78.7455L250.164 77.7395L232.202 75.7273L230.262 92.9261L248.224 94.9383L257.206 95.9443Z" fill="black"></path>
  <path d="M206.909 75.0087L207.483 69.9305L209.519 51.9652L192.323 50.0249L190.287 67.9902L189.281 76.9729L202.55 78.482L198.31 81.8594L191.245 87.4886L202.023 101.022L209.088 95.3933L223.243 84.1111L212.441 70.5773L206.909 75.0087Z" fill="black"></path>
  <path d="M241.733 139.468L232.536 124.809L217.208 134.438L209.568 139.253L216.681 150.559L211.388 149.361L202.575 147.349L198.719 164.213L207.532 166.225L225.16 170.249L229.016 153.385L222.094 151.805L226.429 149.098L241.733 139.468Z" fill="black"></path>
  <path d="M265.06 126.916L255.432 111.61L250.642 103.969L235.984 113.167L240.798 120.832L250.402 136.139L265.06 126.916Z" fill="black"></path>
  <path d="M237.302 172.021L222.645 181.22L232.273 196.55L237.086 204.191L251.72 194.993L246.93 187.328L237.302 172.021Z" fill="black"></path>
  <path d="M199.174 140.115L207.605 142.031L211.628 124.401L213.64 115.587L196.779 111.73L194.768 120.545L191.534 134.75L183.104 132.833L179.08 150.463L177.068 159.278L193.929 163.135L195.941 154.32L199.174 140.115Z" fill="black"></path>
  <path d="M173.521 193.939L169.114 206.563L166.767 201.652L162.84 193.508L147.248 201.029L151.176 209.174L159.008 225.462L174.599 217.941L171.533 211.569L176.347 213.246L193.424 219.234L199.124 202.898L182.072 196.933L173.521 193.939Z" fill="black"></path>
  <path d="M207.413 206.874L201.426 223.929L217.76 229.654L223.747 212.575L226.717 204.048L210.383 198.323L207.413 206.874Z" fill="black"></path>
  <path d="M142.914 247.404L139.92 255.955L156.254 261.656L159.248 253.129L165.211 236.05L148.877 230.349L142.914 247.404Z" fill="black"></path>
  <path d="M153.261 192.67L166.385 186.346L170.145 194.155L186.432 186.298L194.575 182.37L187.054 166.776L178.911 170.704L165.81 177.028L162.05 169.243L145.764 177.076L137.621 181.004L145.118 196.598L153.261 192.67Z" fill="black"></path>
  <path d="M116.713 183.28L120.473 175.471L104.187 167.638L96.0199 163.709L88.5234 179.303L96.6665 183.232L109.791 189.532L106.031 197.341L122.317 205.173L130.46 209.102L137.981 193.508L129.837 189.58L116.713 183.28Z" fill="black"></path>
  <path d="M111.301 208.383L108.307 199.856L95.7089 204.263L98.0561 199.376L101.984 191.232L86.3924 183.711L82.4645 191.879L74.6328 208.168L90.2243 215.665L93.2899 209.293L94.9665 214.108L100.954 231.187L117.264 225.462L111.301 208.383Z" fill="black"></path>
  <path d="M119.324 234.421L102.271 240.385L107.972 256.722L125.048 250.733L133.574 247.763L127.874 231.427L119.324 234.421Z" fill="black"></path>
  <path d="M47.4252 209.246L38.875 212.24L44.5991 228.576L53.1253 225.582L70.2018 219.618L64.4777 203.281L47.4252 209.246Z" fill="black"></path>
  <path d="M50.5382 187.519L42.8741 182.705L27.57 173.099L18.373 187.735L33.6772 197.365L41.3413 202.179L50.5382 187.519Z" fill="black"></path>
  <path d="M33.0308 120.425L17.7027 110.795L10.0626 105.981L0.841797 120.64L8.50581 125.455L23.81 135.061L33.0308 120.425Z" fill="black"></path>
  <path d="M85.6485 129.216L83.6366 120.401L66.7517 124.257L68.7636 133.072L71.9968 147.277L63.5664 149.193L67.59 166.823L69.6018 175.638L86.4867 171.806L84.4749 162.991L81.2177 148.786L89.6721 146.846L85.6485 129.216Z" fill="black"></path>
  <path d="M65.8192 142.223L61.9631 125.359L53.1495 127.371L35.5221 131.396L39.3781 148.259L46.2758 146.678L43.5694 151.014L33.9414 166.32L48.599 175.519L58.2269 160.212L63.017 152.571L51.7125 145.456L57.0054 144.235L65.8192 142.223Z" fill="black"></path>
  <path d="M62.7756 88.6624L71.757 87.6564L70.2721 74.3619L74.5112 77.7635L81.5765 83.3926L92.3781 69.8586L85.3128 64.2295L71.1582 52.9473L60.3806 66.4812L65.9131 70.8888L60.8357 71.4636L42.873 73.4996L44.813 90.6744L62.7756 88.6624Z" fill="black"></path>
  <path d="M19.4518 101.621L36.648 99.6811L35.6421 90.6985L33.6064 72.7332L16.4102 74.6734L18.4459 92.6387L19.4518 101.621Z" fill="black"></path>
  <path d="M60.9806 46.0963L78.1768 44.156L76.165 26.1667L75.1352 17.1841L57.9629 19.1243L58.9688 28.107L60.9806 46.0963Z" fill="black"></path>
  <path d="M104.09 90.7941L109.742 83.7277L96.2105 72.9246L90.5823 79.991L81.5051 91.369L74.7272 85.9794L63.4467 100.112L57.8184 107.202L71.3503 117.982L76.9785 110.915L86.0556 99.5372L92.8336 104.927L104.09 90.7941Z" fill="black"></path>
  <path d="M113.024 55.2947H103.971V72.5892H113.024H127.586V81.2605H145.668H154.697V63.942H145.668H131.106V55.2947H113.024Z" fill="black"></path>
  <path d="M121.551 47.6296L127.946 54.0013L137.406 44.5635V50.001V59.0316H154.698V50.001V31.916H137.406V38.9823L133.79 35.3893L121 22.5979L108.762 34.8382L121.551 47.6296Z" fill="black"></path>
  <path d="M103.038 27.652L115.827 14.8848L103.588 2.64429L90.799 15.4357L84.4043 21.8073L96.6429 34.0478L103.038 27.652Z" fill="black"></path>
  <path d="M178.745 19.1245L185.139 12.7289L172.901 0.488525L166.506 6.88414L153.717 19.6755L165.955 31.9159L178.745 19.1245Z" fill="black"></path>
  <path d="M162.075 128.114L170.242 129.983L174.098 113.119L165.284 111.107L150.698 107.778L157.261 102.556L146.483 89.0217L139.418 94.651L127.73 103.969V95.5852H110.414V104.616V119.563L103.852 114.341L93.0742 127.875L100.14 133.504L111.827 142.822L103.636 144.69L107.492 161.554L116.306 159.542L130.892 156.212L127.251 163.781L142.843 171.279L146.771 163.135L153.261 149.649L156.902 157.218L172.493 149.721L168.565 141.576L162.075 128.114ZM145.118 132.809L151.082 145.169L139.011 139.373L133.047 151.733L130.077 138.678L116.713 141.72L125.048 131.252L114.318 122.701H127.706V108.975L136.041 119.443L146.771 110.892L143.801 123.946L157.189 126.989L145.118 132.809Z" fill="black"></path>
</svg>
