<?xml version="1.0" encoding="UTF-8"?>
<svg xmlns="http://www.w3.org/2000/svg" width="275" height="274" viewBox="0 0 275 274" fill="none">
  <path d="M162.308 47.2098L173.277 33.8195L159.267 22.3697L157.446 20.8846V18.0341V8.97949H140.154V18.0341V36.1192H148.729L162.308 47.2098Z" fill="black"></path>
  <path d="M263.307 103.238L256.242 108.891L242.135 120.149L239.429 119.837L221.466 117.825L219.789 132.725L215.215 138.785L211.167 144.198L211.958 138.234L194.809 135.934L193.612 144.893L191.217 162.834L208.365 165.134L209.443 157.062L218.209 163.649L229.058 149.181L234.495 141.947L226.256 135.767L237.489 137.036L246.47 138.042L247.691 127.167L252.889 133.683L267.043 122.424L274.108 116.771L263.307 103.238Z" fill="black"></path>
  <path d="M219.022 101.8L236.314 102.016L236.53 83.9307L236.554 81.5593L238.805 79.7868L245.87 74.1577L235.069 60.6238L228.004 66.253L213.873 77.5351L219.238 84.2422L219.022 101.8Z" fill="black"></path>
  <path d="M227.455 161.014L225.563 169.374L211.695 180.153L222.329 193.807L236.604 182.716L238.448 181.279L241.25 181.902L250.064 183.914L253.896 167.05L245.082 165.038L227.455 161.014Z" fill="black"></path>
  <path d="M211.767 209.664L210.329 207.364L200.702 192.058L188.008 200.035L180.416 200.25L173.662 200.442L178.811 197.352L169.926 182.524L162.166 187.171L146.67 196.466L155.555 211.317L162.525 207.125L162.86 218.096L180.919 217.545L189.972 217.281L189.66 207.005L195.672 216.563L200.486 224.228L209.755 218.407L207.887 226.527L225.514 230.552L234.352 232.564L238.184 215.7L229.37 213.688L211.767 209.664Z" fill="black"></path>
  <path d="M170.692 223.677L162.956 227.414L145.88 223.294L141.832 240.109L159.411 244.349L161.711 244.9L162.932 247.487L166.86 255.632L182.452 248.11L178.524 239.966L170.692 223.677Z" fill="black"></path>
  <path d="M122.864 241.738L123.75 239.175L129.738 222.12L115.583 217.162L110.673 211.365L106.29 206.191L111.943 208.299L118.002 192.106L109.524 188.92L92.5909 182.596L86.5315 198.813L94.1477 201.664L85.7891 208.754L97.4768 222.551L103.297 229.45L111.152 222.791L107.416 233.474L104.446 242.002L114.769 245.619L107.272 249.236L115.104 265.525L119.032 273.669L134.623 266.171L130.696 258.027L122.864 241.738Z" fill="black"></path>
  <path d="M61.9824 185.351L57.0247 171.194L58.5096 163.745L59.803 157.11L61.6711 162.834L78.1248 157.469L75.3227 148.869L69.7183 131.671L53.2645 137.06L55.7793 144.773L45.0257 142.665L41.529 160.391L39.7806 169.278L49.8636 171.266L39.2058 175.003L30.6556 177.973L34.2721 188.321L26.7756 184.704L18.92 200.993L14.9922 209.137L30.5837 216.635L34.5116 208.49L42.3433 192.226L44.9059 191.339L61.9824 185.351Z" fill="black"></path>
  <path d="M71.1308 198.717L55.4434 206.047L63.1074 222.431L64.0894 224.563L62.844 227.15L58.9401 235.295L74.5317 242.792L78.4355 234.648L86.2912 218.359L78.5553 214.623L71.1308 198.717Z" fill="black"></path>
  <path d="M37.8399 149.037L35.9239 140.677L43.7317 124.964L28.236 117.25L20.1887 133.467L19.1348 135.551L16.3566 136.198L7.54297 138.21L11.399 155.073L20.2126 153.061L37.8399 149.037Z" fill="black"></path>
  <path d="M30.8706 98.399L33.1699 99.8361L48.474 109.466L56.4495 96.7701L63.2034 93.2728L69.1909 90.1589L65.8859 95.1891L80.3517 104.699L85.3094 97.1533L95.2487 82.0385L80.8068 72.5289L76.3281 79.3077L71.2747 69.5825L55.228 77.8946L47.2047 82.0625L51.9468 91.1889L42.3668 85.1764L34.7027 80.3857L28.8828 89.6318L27.0387 81.5116L9.41131 85.5358L0.597656 87.5478L4.4536 104.435L13.2673 102.423L30.8706 98.399Z" fill="black"></path>
  <path d="M61.8155 67.9295L67.1564 61.2224L84.3048 57.5336L80.6643 40.6223L62.9891 44.4308L60.6899 44.9099L58.4625 43.1374L51.3972 37.5083L40.5957 51.0181L47.661 56.6713L61.8155 67.9295Z" fill="black"></path>
  <path d="M97.045 30.8971L97.3564 33.6039L99.3921 51.5693L114.289 49.8925L121.211 52.9824L127.39 55.7372L121.402 56.2881L122.983 73.5348L131.988 72.6965L149.975 71.0675L148.418 53.8209L140.323 54.5635L144.778 44.5508L128.252 37.197L120.013 33.508L115.822 42.898L114.553 31.6637L113.547 22.681L102.649 23.9025L107.847 17.3872L93.716 6.12888L86.6506 0.47583L75.873 14.0098L82.9384 19.6388L97.045 30.8971Z" fill="black"></path>
  <path d="M173.924 87.4282L180.175 93.9675L192.701 107.022L205.179 95.0455L199.55 89.1768L210.16 86.4222L205.61 68.912L203.359 60.1448L193.395 62.7318L201.395 54.7552L207.789 48.3596L200.03 40.6226H208.364V22.5375V13.4829H191.072V22.5375V40.5986L189.156 42.5149L176.367 55.3062L186.977 65.8938L188.869 73.2476L190.569 79.8109L186.402 75.4513L173.924 87.4282Z" fill="black"></path>
  <path d="M160.728 134.114L168.919 135.983L172.775 119.119L163.962 117.107L149.376 113.777L155.938 108.555L145.161 95.0215L138.096 100.651L126.408 109.969V101.585H109.092V110.615V125.563L102.53 120.341L91.752 133.875L98.8173 139.504L110.505 148.822L102.314 150.69L106.17 167.554L114.984 165.541L129.569 162.212L125.929 169.781L141.52 177.279L145.448 169.134L151.939 155.648L155.579 163.218L171.171 155.72L167.243 147.576L160.728 134.114ZM143.772 138.809L149.711 151.169L137.664 145.372L131.701 157.733L128.731 144.678L115.343 147.72L123.701 137.252L112.972 128.7H126.36V114.975L134.695 125.443L145.424 116.891L142.455 129.946L155.843 132.988L143.772 138.809Z" fill="black"></path>
</svg>
