<svg width="40" height="40" viewBox="0 0 40 40" fill="none" xmlns="http://www.w3.org/2000/svg">
<rect width="40" height="40" rx="20" fill="#E1DFFF"/>
<path d="M19.1673 18.8055V10.0039H14.8619V18.8531L17.1267 16.9469L19.1673 18.8055Z" fill="#8172FC"/>
<path d="M20.0004 10.0039V20.6906L17.105 18.0547L14.0285 20.643V10.0039H13.3355C11.3425 10.0039 10.0035 11.343 10.0035 13.3359V25.4516C10.5824 24.8984 11.4425 24.582 12.5027 24.582H29.9957V10.0047L20.0004 10.0039Z" fill="#8172FC"/>
<path d="M10.0195 27.4679C10.0203 27.4726 10.0211 27.4773 10.0219 27.482H10.0187C10.1023 28.3281 10.6226 29.996 13.407 29.996H29.9953V25.4148H12.5023C10.9492 25.4148 10.0211 26.1827 10.0195 27.4679Z" fill="#8172FC"/>
</svg>
