<svg width="292" height="62" viewBox="0 0 292 62" fill="none" xmlns="http://www.w3.org/2000/svg">
<g clip-path="url(#clip0_133_4722)">
<path d="M-0.00195312 29.0561V8.81079H4.55659V11.0901H4.90135C5.71538 9.70143 7.41047 8.30322 10.0824 8.30322C12.7543 8.30322 14.7942 9.65355 15.838 11.5881H16.1828C17.3416 9.57693 19.3527 8.30322 22.13 8.30322C26.4587 8.30322 29.437 11.4731 29.437 15.6103V29.0561H24.8402V17.1139C24.8402 14.1355 23.2983 12.6319 21.0574 12.6319C18.8164 12.6319 16.9968 14.2121 16.9968 17.1139V29.0561H12.4383V16.5776C12.4383 14.1067 10.7336 12.6319 8.57883 12.6319C6.42406 12.6319 4.55659 14.3749 4.55659 17.0372V29.0561H-0.00195312Z" fill="white"/>
<path d="M-0.00195312 29.0561V8.81079H4.55659V11.0901H4.90135C5.71538 9.70143 7.41047 8.30322 10.0824 8.30322C12.7543 8.30322 14.7942 9.65355 15.838 11.5881H16.1828C17.3416 9.57693 19.3527 8.30322 22.13 8.30322C26.4587 8.30322 29.437 11.4731 29.437 15.6103V29.0561H24.8402V17.1139C24.8402 14.1355 23.2983 12.6319 21.0574 12.6319C18.8164 12.6319 16.9968 14.2121 16.9968 17.1139V29.0561H12.4383V16.5776C12.4383 14.1067 10.7336 12.6319 8.57883 12.6319C6.42406 12.6319 4.55659 14.3749 4.55659 17.0372V29.0561H-0.00195312Z" fill="white"/>
<path d="M38.2696 16.7691H48.9381C48.7083 14.0301 46.429 12.2872 43.6422 12.2872C40.8553 12.2872 38.5378 14.3366 38.2696 16.7691ZM43.8337 29.5637C37.6471 29.5637 33.5195 25.1583 33.5195 18.9717C33.5195 12.7852 38.193 8.30322 43.6422 8.30322C49.8288 8.30322 53.5733 12.7852 53.5733 18.8089V20.0826H38.2313C38.2696 23.4824 40.4723 25.6468 43.7954 25.6468C46.0364 25.6468 48.1624 24.488 48.8998 22.247L53.0753 23.2526C51.7633 27.4663 48.0475 29.5541 43.8433 29.5541L43.8337 29.5637Z" fill="white"/>
<path d="M38.2696 16.7691H48.9381C48.7083 14.0301 46.429 12.2872 43.6422 12.2872C40.8553 12.2872 38.5378 14.3366 38.2696 16.7691ZM43.8337 29.5637C37.6471 29.5637 33.5195 25.1583 33.5195 18.9717C33.5195 12.7852 38.193 8.30322 43.6422 8.30322C49.8288 8.30322 53.5733 12.7852 53.5733 18.8089V20.0826H38.2313C38.2696 23.4824 40.4723 25.6468 43.7954 25.6468C46.0364 25.6468 48.1624 24.488 48.8998 22.247L53.0753 23.2526C51.7633 27.4663 48.0475 29.5541 43.8433 29.5541L43.8337 29.5637Z" fill="white"/>
<path d="M66.997 25.3112C70.4351 25.3112 72.676 22.4094 72.676 18.9714C72.676 14.9491 70.0903 12.5933 66.9587 12.5933C63.8271 12.5933 61.2414 15.2173 61.2414 18.9714C61.2414 22.7255 63.8271 25.3112 66.997 25.3112ZM66.2692 29.5633C60.82 29.5633 56.6445 25.0814 56.6445 18.9331C56.6445 12.7848 60.5519 8.30286 65.9915 8.30286C69.5827 8.30286 71.3257 10.2374 72.2164 11.3962H72.5611V0.076416H77.1197V29.0557H72.6377V26.6615H72.293C71.4406 27.7054 69.7839 29.5633 66.2692 29.5633Z" fill="white"/>
<path d="M66.997 25.3112C70.4351 25.3112 72.676 22.4094 72.676 18.9714C72.676 14.9491 70.0903 12.5933 66.9587 12.5933C63.8271 12.5933 61.2414 15.2173 61.2414 18.9714C61.2414 22.7255 63.8271 25.3112 66.997 25.3112ZM66.2692 29.5633C60.82 29.5633 56.6445 25.0814 56.6445 18.9331C56.6445 12.7848 60.5519 8.30286 65.9915 8.30286C69.5827 8.30286 71.3257 10.2374 72.2164 11.3962H72.5611V0.076416H77.1197V29.0557H72.6377V26.6615H72.293C71.4406 27.7054 69.7839 29.5633 66.2692 29.5633Z" fill="white"/>
<path d="M84.9241 29.056V12.8329H81.3711V8.81068H89.4826V29.056H84.9241ZM87.2417 5.67908C85.5753 5.67908 84.3399 4.44368 84.3399 2.81563C84.3399 1.18757 85.5753 -0.00952148 87.2417 -0.00952148C88.908 -0.00952148 90.1434 1.22588 90.1434 2.81563C90.1434 4.40537 88.908 5.67908 87.2417 5.67908Z" fill="white"/>
<path d="M84.9241 29.056V12.8329H81.3711V8.81068H89.4826V29.056H84.9241ZM87.2417 5.67908C85.5753 5.67908 84.3399 4.44368 84.3399 2.81563C84.3399 1.18757 85.5753 -0.00952148 87.2417 -0.00952148C88.908 -0.00952148 90.1434 1.22588 90.1434 2.81563C90.1434 4.40537 88.908 5.67908 87.2417 5.67908Z" fill="white"/>
<path d="M95.7383 29.0561V8.81079H100.297V11.1284H100.642C101.532 9.58651 103.381 8.30322 106.091 8.30322C110.534 8.30322 113.36 11.6264 113.36 15.8018V29.0561H108.801V16.884C108.801 14.3749 107.02 12.6319 104.702 12.6319C102.193 12.6319 100.297 14.5664 100.297 17.1139V29.0561H95.7383Z" fill="white"/>
<path d="M95.7383 29.0561V8.81079H100.297V11.1284H100.642C101.532 9.58651 103.381 8.30322 106.091 8.30322C110.534 8.30322 113.36 11.6264 113.36 15.8018V29.0561H108.801V16.884C108.801 14.3749 107.02 12.6319 104.702 12.6319C102.193 12.6319 100.297 14.5664 100.297 17.1139V29.0561H95.7383Z" fill="white"/>
<path d="M127.906 29.5637C121.605 29.5637 117.4 24.8519 117.4 18.9334C117.4 13.015 121.691 8.30322 127.868 8.30322C132.618 8.30322 136.602 10.9656 137.761 15.8784L133.432 16.9223C132.896 14.2983 130.731 12.6319 127.983 12.6319C124.468 12.6319 122.074 15.3709 122.074 18.9334C122.074 22.496 124.545 25.235 128.021 25.235C130.76 25.235 132.924 23.6165 133.47 20.9829L137.799 22.0267C136.64 26.93 132.656 29.5637 127.906 29.5637Z" fill="white"/>
<path d="M127.906 29.5637C121.605 29.5637 117.4 24.8519 117.4 18.9334C117.4 13.015 121.691 8.30322 127.868 8.30322C132.618 8.30322 136.602 10.9656 137.761 15.8784L133.432 16.9223C132.896 14.2983 130.731 12.6319 127.983 12.6319C124.468 12.6319 122.074 15.3709 122.074 18.9334C122.074 22.496 124.545 25.235 128.021 25.235C130.76 25.235 132.924 23.6165 133.47 20.9829L137.799 22.0267C136.64 26.93 132.656 29.5637 127.906 29.5637Z" fill="white"/>
<path d="M151.186 25.235C154.739 25.235 157.248 22.5726 157.248 18.9334C157.248 15.2943 154.739 12.6319 151.186 12.6319C147.633 12.6319 145.162 15.3326 145.162 18.9334C145.162 22.5343 147.671 25.235 151.186 25.235ZM151.186 29.5637C144.961 29.5637 140.518 25.0051 140.518 18.9334C140.518 12.8618 145 8.30322 151.224 8.30322C157.449 8.30322 161.893 12.9001 161.893 18.9334C161.893 24.9668 157.411 29.5637 151.186 29.5637Z" fill="white"/>
<path d="M151.186 25.235C154.739 25.235 157.248 22.5726 157.248 18.9334C157.248 15.2943 154.739 12.6319 151.186 12.6319C147.633 12.6319 145.162 15.3326 145.162 18.9334C145.162 22.5343 147.671 25.235 151.186 25.235ZM151.186 29.5637C144.961 29.5637 140.518 25.0051 140.518 18.9334C140.518 12.8618 145 8.30322 151.224 8.30322C157.449 8.30322 161.893 12.9001 161.893 18.9334C161.893 24.9668 157.411 29.5637 151.186 29.5637Z" fill="white"/>
<path d="M140.473 55.7656V43.9479H137.897V41.6207H143.154V55.7656H140.473ZM141.833 39.2648C140.798 39.2648 140.042 38.4795 140.042 37.4452C140.042 36.4684 140.798 35.6831 141.833 35.6831C142.867 35.6831 143.652 36.4684 143.652 37.4452C143.652 38.4795 142.896 39.2648 141.833 39.2648ZM127.841 55.7656V41.6207H130.494V43.8425H130.685C131.174 42.6454 132.553 41.2664 134.478 41.2664H135.483V43.9479H134.133C131.691 43.9479 130.532 45.8153 130.532 48.4968V55.756H127.851L127.841 55.7656ZM94.4755 55.7656V41.6207H97.157V43.4594H97.3773C97.971 42.2623 99.3788 41.2664 101.438 41.2664C104.636 41.2664 106.609 43.651 106.609 46.6868V55.7656H103.928V47.1465C103.928 45.145 102.463 43.7851 100.672 43.7851C98.6893 43.7851 97.1474 45.3269 97.1474 47.3859V55.756H94.4659L94.4755 55.7656ZM78.7313 62.0001V59.558H80.5509C81.6905 59.558 82.2556 59.0696 82.6674 58.064L83.558 55.756H82.8781L77.8407 41.6111H80.7712L84.487 53.1799H84.7072L88.7199 41.6111H91.6695L84.9179 59.2515C84.1901 61.1477 82.6961 61.9905 80.5317 61.9905H78.7409L78.7313 62.0001ZM68.1969 55.7656V41.6207H70.8496V43.8425H71.0412C71.5296 42.6454 72.9086 41.2664 74.8336 41.2664H75.8391V43.9479H74.4888C72.0467 43.9479 70.8879 45.8153 70.8879 48.4968V55.756H68.2064L68.1969 55.7656ZM53.7647 47.3668H62.0294C61.8953 44.9534 60.0758 43.6318 57.9401 43.6318C55.8045 43.6318 53.9562 45.2024 53.7647 47.3668ZM58.0646 56.1199C53.7551 56.1199 50.9683 53.0554 50.9683 48.7267C50.9683 44.398 54.1382 41.2759 57.9306 41.2759C62.2401 41.2759 64.7588 44.3405 64.7588 48.5639V49.4066H53.7264C53.7551 52.1743 55.431 53.7928 58.0646 53.7928C59.8268 53.7928 61.4835 52.816 61.9624 51.0538L64.4811 51.6763C63.6096 54.4632 61.1484 56.1199 58.0551 56.1199H58.0646ZM45.9692 55.7656C43.3164 55.7656 41.5543 54.5493 41.5543 51.6189V43.9479H38.9781V41.6207H41.7171V37.5793H44.2358V41.6207H48.4113V43.9479H44.2358V51.5901C44.2358 52.8638 44.7529 53.4097 45.9979 53.4097H48.2485V55.7656H45.9692ZM26.1165 47.3668H34.3813C34.2472 44.9534 32.4276 43.6318 30.292 43.6318C28.1564 43.6318 26.3081 45.2024 26.1165 47.3668ZM30.4261 56.1199C26.1165 56.1199 23.3297 53.0554 23.3297 48.7267C23.3297 44.398 26.4996 41.2759 30.292 41.2759C34.6016 41.2759 37.1202 44.3405 37.1202 48.5639V49.4066H26.0878C26.1165 52.1743 27.7925 53.7928 30.4261 53.7928C32.1882 53.7928 33.845 52.816 34.3238 51.0538L36.8425 51.6763C35.971 54.4632 33.5098 56.1199 30.4165 56.1199H30.4261ZM4.19532 55.7656L0.134766 41.6207H3.03653L6.0149 53.2469H6.20644L9.29973 41.6207H12.7953L15.8598 53.2469H16.0514L19.0585 41.6207H21.9315L17.8709 55.7656H14.1839L11.1193 44.1681H10.9565L7.92068 55.7656H4.20489H4.19532Z" fill="white"/>
<path d="M140.473 55.7656V43.9479H137.897V41.6207H143.154V55.7656H140.473ZM141.833 39.2648C140.798 39.2648 140.042 38.4795 140.042 37.4452C140.042 36.4684 140.798 35.6831 141.833 35.6831C142.867 35.6831 143.652 36.4684 143.652 37.4452C143.652 38.4795 142.896 39.2648 141.833 39.2648ZM127.841 55.7656V41.6207H130.494V43.8425H130.685C131.174 42.6454 132.553 41.2664 134.478 41.2664H135.483V43.9479H134.133C131.691 43.9479 130.532 45.8153 130.532 48.4968V55.756H127.851L127.841 55.7656ZM94.4755 55.7656V41.6207H97.157V43.4594H97.3773C97.971 42.2623 99.3788 41.2664 101.438 41.2664C104.636 41.2664 106.609 43.651 106.609 46.6868V55.7656H103.928V47.1465C103.928 45.145 102.463 43.7851 100.672 43.7851C98.6893 43.7851 97.1474 45.3269 97.1474 47.3859V55.756H94.4659L94.4755 55.7656ZM78.7313 62.0001V59.558H80.5509C81.6905 59.558 82.2556 59.0696 82.6674 58.064L83.558 55.756H82.8781L77.8407 41.6111H80.7712L84.487 53.1799H84.7072L88.7199 41.6111H91.6695L84.9179 59.2515C84.1901 61.1477 82.6961 61.9905 80.5317 61.9905H78.7409L78.7313 62.0001ZM68.1969 55.7656V41.6207H70.8496V43.8425H71.0412C71.5296 42.6454 72.9086 41.2664 74.8336 41.2664H75.8391V43.9479H74.4888C72.0467 43.9479 70.8879 45.8153 70.8879 48.4968V55.756H68.2064L68.1969 55.7656ZM53.7647 47.3668H62.0294C61.8953 44.9534 60.0758 43.6318 57.9401 43.6318C55.8045 43.6318 53.9562 45.2024 53.7647 47.3668ZM58.0646 56.1199C53.7551 56.1199 50.9683 53.0554 50.9683 48.7267C50.9683 44.398 54.1382 41.2759 57.9306 41.2759C62.2401 41.2759 64.7588 44.3405 64.7588 48.5639V49.4066H53.7264C53.7551 52.1743 55.431 53.7928 58.0646 53.7928C59.8268 53.7928 61.4835 52.816 61.9624 51.0538L64.4811 51.6763C63.6096 54.4632 61.1484 56.1199 58.0551 56.1199H58.0646ZM45.9692 55.7656C43.3164 55.7656 41.5543 54.5493 41.5543 51.6189V43.9479H38.9781V41.6207H41.7171V37.5793H44.2358V41.6207H48.4113V43.9479H44.2358V51.5901C44.2358 52.8638 44.7529 53.4097 45.9979 53.4097H48.2485V55.7656H45.9692ZM26.1165 47.3668H34.3813C34.2472 44.9534 32.4276 43.6318 30.292 43.6318C28.1564 43.6318 26.3081 45.2024 26.1165 47.3668ZM30.4261 56.1199C26.1165 56.1199 23.3297 53.0554 23.3297 48.7267C23.3297 44.398 26.4996 41.2759 30.292 41.2759C34.6016 41.2759 37.1202 44.3405 37.1202 48.5639V49.4066H26.0878C26.1165 52.1743 27.7925 53.7928 30.4261 53.7928C32.1882 53.7928 33.845 52.816 34.3238 51.0538L36.8425 51.6763C35.971 54.4632 33.5098 56.1199 30.4165 56.1199H30.4261ZM4.19532 55.7656L0.134766 41.6207H3.03653L6.0149 53.2469H6.20644L9.29973 41.6207H12.7953L15.8598 53.2469H16.0514L19.0585 41.6207H21.9315L17.8709 55.7656H14.1839L11.1193 44.1681H10.9565L7.92068 55.7656H4.20489H4.19532Z" fill="white"/>
<path d="M157.814 41.6209V43.6512H157.593C157.047 42.8947 155.755 41.2666 153.016 41.2666C149.118 41.2666 146.379 44.4365 146.379 48.6886C146.379 52.9407 149.252 56.1106 153.178 56.1106C155.994 56.1106 157.134 54.4825 157.622 53.8026H157.814V55.7563H160.495V41.6114H157.814V41.6209ZM153.504 53.6589C151.043 53.6589 149.089 51.7053 149.089 48.7269C149.089 45.7485 150.957 43.7661 153.475 43.7661C155.994 43.7661 157.89 45.5857 157.89 48.7269C157.89 51.4084 156.186 53.6589 153.504 53.6589Z" fill="white"/>
<path d="M157.814 41.6209V43.6512H157.593C157.047 42.8947 155.755 41.2666 153.016 41.2666C149.118 41.2666 146.379 44.4365 146.379 48.6886C146.379 52.9407 149.252 56.1106 153.178 56.1106C155.994 56.1106 157.134 54.4825 157.622 53.8026H157.814V55.7563H160.495V41.6114H157.814V41.6209ZM153.504 53.6589C151.043 53.6589 149.089 51.7053 149.089 48.7269C149.089 45.7485 150.957 43.7661 153.475 43.7661C155.994 43.7661 157.89 45.5857 157.89 48.7269C157.89 51.4084 156.186 53.6589 153.504 53.6589Z" fill="white"/>
<path d="M121.261 41.6209V43.6512H121.041C120.495 42.8947 119.202 41.2666 116.463 41.2666C112.565 41.2666 109.826 44.4365 109.826 48.6886C109.826 52.9407 112.699 56.1106 116.626 56.1106C119.441 56.1106 120.581 54.4825 121.069 53.8026H121.261V55.7563H123.942V41.6114H121.261V41.6209ZM116.951 53.6589C114.49 53.6589 112.536 51.7053 112.536 48.7269C112.536 45.7485 114.404 43.7661 116.923 43.7661C119.441 43.7661 121.337 45.5857 121.337 48.7269C121.337 51.4084 119.633 53.6589 116.951 53.6589Z" fill="white"/>
<path d="M121.261 41.6209V43.6512H121.041C120.495 42.8947 119.202 41.2666 116.463 41.2666C112.565 41.2666 109.826 44.4365 109.826 48.6886C109.826 52.9407 112.699 56.1106 116.626 56.1106C119.441 56.1106 120.581 54.4825 121.069 53.8026H121.261V55.7563H123.942V41.6114H121.261V41.6209ZM116.951 53.6589C114.49 53.6589 112.536 51.7053 112.536 48.7269C112.536 45.7485 114.404 43.7661 116.923 43.7661C119.441 43.7661 121.337 45.5857 121.337 48.7269C121.337 51.4084 119.633 53.6589 116.951 53.6589Z" fill="white"/>
</g>
<g clip-path="url(#clip1_133_4722)">
<path d="M200.899 37.5674C200.476 37.5674 200.085 37.7046 199.767 37.9354C199.688 37.9927 199.613 38.0545 199.544 38.1224C199.539 38.1269 199.535 38.1299 199.53 38.1345C199.525 38.139 199.522 38.1435 199.518 38.148C199.45 38.2174 199.388 38.2913 199.331 38.3712C199.1 38.6895 198.963 39.0801 198.963 39.5039V43.0798V44.131C198.96 45.2184 199.382 45.8473 199.881 46.1791C200.379 46.5124 200.908 46.5426 201.184 46.5426H201.72H202.255C202.53 46.5426 203.059 46.5124 203.558 46.1791C204.058 45.8473 204.48 45.2184 204.477 44.131V37.5689H200.901L200.899 37.5674Z" fill="white"/>
<path opacity="0.9" d="M207.937 39.787C207.937 39.5125 207.906 38.9831 207.573 38.4839C207.241 37.9847 206.612 37.5624 205.525 37.5654H200.899C200.476 37.5654 200.085 37.7027 199.767 37.9334C199.688 37.9908 199.613 38.0526 199.544 38.1205C199.539 38.125 199.534 38.128 199.53 38.1325C199.525 38.137 199.522 38.1416 199.518 38.1461C199.45 38.2155 199.388 38.2894 199.331 38.3693C199.1 38.6875 198.963 39.0781 198.963 39.5019V43.0778H205.525C206.612 43.0809 207.241 42.6586 207.573 42.1594C207.906 41.6617 207.937 41.1323 207.937 40.8563V40.3209V39.7855V39.787Z" fill="white"/>
<path d="M195.91 44.2347C196.736 44.2347 197.406 43.5648 197.406 42.7385C197.406 41.9123 196.736 41.2424 195.91 41.2424C195.084 41.2424 194.414 41.9123 194.414 42.7385C194.414 43.5648 195.084 44.2347 195.91 44.2347Z" fill="white"/>
<path d="M204.135 36.0103C204.961 36.0103 205.631 35.3405 205.631 34.5142C205.631 33.6879 204.961 33.0181 204.135 33.0181C203.309 33.0181 202.639 33.6879 202.639 34.5142C202.639 35.3405 203.309 36.0103 204.135 36.0103Z" fill="white"/>
<path d="M195.926 39.4234C196.752 39.4234 197.422 38.7535 197.422 37.9273C197.422 37.101 196.752 36.4312 195.926 36.4312C195.1 36.4312 194.43 37.101 194.43 37.9273C194.43 38.7535 195.1 39.4234 195.926 39.4234Z" fill="white"/>
<path d="M199.322 36.0249C200.149 36.0249 200.818 35.3551 200.818 34.5288C200.818 33.7025 200.149 33.0327 199.322 33.0327C198.496 33.0327 197.826 33.7025 197.826 34.5288C197.826 35.3551 198.496 36.0249 199.322 36.0249Z" fill="white"/>
<path d="M239.075 27.9795H236.031V37.837H239.075V27.9795Z" fill="white"/>
<path d="M278.556 28.2522C278.065 27.9838 277.408 27.9747 277.393 27.9792H272.012L271.06 29.8011H275.752C276.224 29.8056 276.414 29.967 276.536 30.1465C276.652 30.3244 276.667 30.5446 276.664 30.611V36.0163H274.456C273.855 36.0163 273.586 35.7584 273.414 35.4477C273.25 35.1461 273.229 34.7826 273.229 34.6288V34.5504C273.233 34.0316 273.45 33.6982 273.669 33.475C273.782 33.3634 273.889 33.288 273.972 33.2382C274.017 33.2126 276.239 32.0558 276.239 32.0558V31.0469L272.337 31.6079C271.328 31.724 270.813 32.463 270.57 33.1432C270.324 33.8295 270.319 34.4855 270.316 34.5564V34.5745C270.316 36.0978 270.844 36.9408 271.429 37.3782C272.013 37.8035 272.625 37.8367 272.785 37.8367H279.651V30.0334C279.651 29.1511 279.059 28.5192 278.559 28.2507L278.556 28.2522Z" fill="white"/>
<path d="M288.845 27.9578L286.256 33.6512C286.214 33.7221 286.15 33.7643 286.067 33.7643C285.971 33.7598 285.888 33.6844 285.856 33.618L283.807 28.6063C283.807 28.6063 283.618 27.9578 282.85 27.9578H280.225L283.942 36.4835C284.075 36.841 284.205 37.5393 283.983 38.1063L281.942 42.2297H285.084L291.954 27.9563H288.847L288.845 27.9578Z" fill="white"/>
<path d="M236.03 27.1933H239.074V24.1543H236.985C235.926 24.1543 236.03 25.0185 236.03 25.0185V27.1933Z" fill="white"/>
<path d="M257.71 24.898V27.9747H254.517C253.143 27.9747 252.499 28.3774 252.041 29.1767C251.716 29.7438 251.579 30.5492 251.576 31.6365V34.1793C251.579 35.2622 251.716 36.0646 252.041 36.6377C252.499 37.4385 253.357 37.8412 254.507 37.8412H260.702V24.1484H258.558C257.71 24.1484 257.71 24.898 257.71 24.898ZM257.71 36.0238H256.464C255.565 36.0178 255.078 35.7991 254.879 35.3889C254.78 35.2245 254.629 34.668 254.629 33.291V31.4148C254.629 30.4179 254.787 30.2309 254.967 30.0364C255.138 29.8403 255.356 29.8041 255.573 29.8041H257.708V36.0269L257.71 36.0238Z" fill="white"/>
<path d="M248.893 28.379C248.341 28.0126 247.764 27.9794 247.464 27.9794C247.373 27.9794 240.754 27.9749 240.754 27.9749L240.746 37.8429H243.832V29.8028L245.918 29.8073C246.382 29.8133 246.587 29.9988 246.72 30.2447C246.85 30.4724 246.875 30.7755 246.875 30.9354L246.871 37.8444H249.901V30.6323C249.901 29.4378 249.439 28.7455 248.893 28.3821V28.379Z" fill="white"/>
<path d="M233.342 28.379C232.795 28.0126 232.212 27.9794 231.911 27.9794L219.195 27.9749V37.8383H222.221V29.8028H224.29C224.764 29.8073 224.967 29.9988 225.106 30.2432C225.237 30.4709 225.257 30.774 225.257 30.9339V30.9414C225.257 31.0048 225.252 37.8399 225.252 37.8399H228.287V29.8043H230.366C230.834 29.8088 231.039 30.0003 231.175 30.2447C231.303 30.4724 231.324 30.7755 231.324 30.9354V30.9429C231.324 31.0063 231.321 37.8459 231.321 37.8459H234.349V30.6338C234.353 29.4393 233.89 28.747 233.341 28.3836L233.342 28.379Z" fill="white"/>
<path d="M267.827 27.9749H267.806C264.616 27.9749 263.682 29.0653 263.233 31.2024L261.805 37.8218H265.088L266.433 31.6216C266.647 30.5931 266.853 30.2311 266.94 30.1451C267.133 29.9174 267.444 29.7877 268.163 29.7832H269.391L270.352 27.9764H267.828L267.827 27.9749Z" fill="white"/>
<path d="M248.427 45.5038H248.426C248.423 45.2821 248.328 45.1343 248.128 45.0499C247.934 44.9669 247.738 44.9262 247.542 44.9262C247.346 44.9262 247.141 44.9669 246.946 45.0499C246.748 45.1343 246.652 45.2821 246.649 45.5038V45.5355C245.996 45.1208 245.283 44.9111 244.506 44.9111C244.492 44.9111 244.479 44.9126 244.464 44.9141C244.445 44.9141 244.427 44.9111 244.409 44.9111C243.498 44.9111 242.679 45.2143 241.951 45.8191C241.523 46.172 241.182 46.6063 240.928 47.1236C240.915 47.1523 240.906 47.1809 240.892 47.2081C240.844 47.3106 240.799 47.4132 240.76 47.5188C240.749 47.5474 240.74 47.5776 240.729 47.6062C240.693 47.7103 240.661 47.8159 240.634 47.9215C240.627 47.9486 240.619 47.9758 240.613 48.0029C240.586 48.1236 240.565 48.2442 240.548 48.3679C240.544 48.4041 240.541 48.4418 240.536 48.4795C240.524 48.5956 240.517 48.7133 240.515 48.8339C240.515 48.843 240.514 48.852 240.514 48.8611C240.514 48.8641 240.514 48.8671 240.514 48.8701C240.514 48.8731 240.514 48.8761 240.514 48.8792C240.514 48.8882 240.514 48.8973 240.515 48.9063C240.515 49.0254 240.524 49.1431 240.536 49.2607C240.539 49.2984 240.544 49.3346 240.548 49.3723C240.565 49.496 240.586 49.6167 240.613 49.7373C240.619 49.7645 240.627 49.7916 240.634 49.8187C240.661 49.9258 240.693 50.0299 240.729 50.134C240.74 50.1626 240.749 50.1928 240.76 50.2214C240.799 50.3255 240.844 50.4296 240.892 50.5321C240.906 50.5608 240.915 50.5894 240.928 50.6166C241.18 51.1339 241.521 51.5682 241.951 51.9211C242.679 52.5259 243.498 52.8291 244.409 52.8291C244.427 52.8291 244.445 52.8276 244.464 52.8261C244.477 52.8261 244.491 52.8291 244.506 52.8291C245.281 52.8291 245.996 52.6209 246.649 52.2047V52.8215H248.421V52.722H248.429V49.6031C248.429 49.4613 248.429 49.3286 248.426 49.2019V48.4885C248.429 48.3784 248.429 48.2638 248.429 48.1401V45.6351V45.5084L248.427 45.5038ZM245.908 50.5185C245.546 50.8262 245.117 50.9921 244.622 51.0178C244.59 51.0178 244.56 51.0223 244.527 51.0223C243.9 51.0193 243.37 50.7945 242.94 50.3466C242.55 49.9439 242.352 49.4508 242.351 48.8671C242.352 48.2834 242.548 47.7902 242.94 47.3876C243.37 46.9396 243.9 46.7149 244.527 46.7119C244.559 46.7119 244.59 46.7149 244.622 46.7164C245.117 46.7436 245.546 46.908 245.908 47.2156C246.387 47.6334 246.632 48.1809 246.649 48.852V48.8792C246.632 49.5518 246.387 50.0978 245.908 50.5155V50.5185Z" fill="white"/>
<path d="M213.283 45.5038H213.281C213.278 45.2821 213.183 45.1343 212.984 45.0499C212.789 44.9669 212.593 44.9262 212.397 44.9262C212.201 44.9262 211.996 44.9669 211.802 45.0499C211.604 45.1343 211.507 45.2821 211.504 45.5038V45.5355C210.851 45.1208 210.138 44.9111 209.361 44.9111C209.348 44.9111 209.334 44.9126 209.319 44.9141C209.301 44.9141 209.283 44.9111 209.265 44.9111C208.354 44.9111 207.535 45.2143 206.806 45.8191C206.378 46.172 206.037 46.6063 205.784 47.1236C205.77 47.1523 205.761 47.1809 205.748 47.2081C205.698 47.3106 205.654 47.4132 205.615 47.5188C205.604 47.5474 205.595 47.5776 205.585 47.6062C205.549 47.7103 205.517 47.8159 205.49 47.9215C205.482 47.9486 205.475 47.9758 205.469 48.0029C205.442 48.1236 205.42 48.2442 205.404 48.3679C205.399 48.4041 205.396 48.4418 205.392 48.4795C205.38 48.5956 205.372 48.7133 205.371 48.8339C205.371 48.843 205.369 48.852 205.369 48.8611C205.369 48.8641 205.369 48.8671 205.369 48.8701C205.369 48.8731 205.369 48.8761 205.369 48.8792C205.369 48.8882 205.371 48.8973 205.371 48.9063C205.371 49.0254 205.38 49.1431 205.392 49.2607C205.395 49.2984 205.399 49.3346 205.404 49.3723C205.42 49.496 205.442 49.6167 205.469 49.7373C205.475 49.7645 205.482 49.7916 205.49 49.8187C205.517 49.9258 205.549 50.0299 205.585 50.134C205.595 50.1626 205.604 50.1928 205.615 50.2214C205.654 50.3255 205.699 50.4296 205.748 50.5321C205.761 50.5608 205.77 50.5894 205.784 50.6166C206.036 51.1339 206.377 51.5682 206.806 51.9211C207.535 52.5259 208.354 52.8291 209.265 52.8291C209.283 52.8291 209.301 52.8276 209.319 52.8261C209.333 52.8261 209.346 52.8291 209.361 52.8291C210.136 52.8291 210.851 52.6209 211.504 52.2047V52.8215H213.277V52.722H213.284V49.6031C213.284 49.4613 213.284 49.3286 213.281 49.2019V48.4885C213.284 48.3784 213.284 48.2638 213.284 48.1401V45.6351V45.5084L213.283 45.5038ZM210.764 50.5185C210.402 50.8262 209.972 50.9921 209.477 51.0178C209.446 51.0178 209.416 51.0223 209.382 51.0223C208.755 51.0193 208.226 50.7945 207.796 50.3466C207.405 49.9439 207.208 49.4508 207.206 48.8671C207.208 48.2834 207.404 47.7902 207.796 47.3876C208.226 46.9396 208.755 46.7149 209.382 46.7119C209.414 46.7119 209.446 46.7149 209.477 46.7164C209.972 46.7436 210.402 46.908 210.764 47.2156C211.242 47.6334 211.488 48.1809 211.504 48.852V48.8792C211.488 49.5518 211.242 50.0978 210.764 50.5155V50.5185Z" fill="white"/>
<path d="M225.346 45.973C225.341 45.7166 225.263 45.5462 225.035 45.4497C224.81 45.3532 224.55 45.3064 224.323 45.3064C224.097 45.3064 223.868 45.3532 223.643 45.4497C223.414 45.5477 223.304 45.7181 223.301 45.973V52.8232H225.346V45.973Z" fill="white"/>
<path d="M251.932 42.7198C251.927 42.4634 251.817 42.293 251.589 42.1965C251.365 42.1 251.135 42.0532 250.909 42.0532C250.683 42.0532 250.454 42.1 250.229 42.1965C250 42.2945 249.89 42.465 249.887 42.7198V52.8246H251.932V42.7198Z" fill="white"/>
<path d="M218.262 44.9265C216.288 44.9265 214.688 46.5267 214.688 48.5009V52.8233H216.733V48.2822C216.733 47.4376 217.417 46.7544 218.26 46.7544C219.103 46.7544 219.788 47.4391 219.788 48.2822V52.8233H221.833V48.5009C221.833 46.5267 220.233 44.9265 218.259 44.9265H218.262Z" fill="white"/>
<path d="M235.458 44.9265C234.458 44.9265 233.556 45.3382 232.908 46.0003C232.259 45.3382 231.356 44.9265 230.358 44.9265C228.383 44.9265 226.783 46.5267 226.783 48.5009V52.8233H228.828V48.2822C228.828 47.4376 229.513 46.7544 230.356 46.7544C231.199 46.7544 231.884 47.4391 231.884 48.2822V52.8233H233.929V48.2822C233.929 47.4376 234.614 46.7544 235.457 46.7544C236.3 46.7544 236.985 47.4391 236.985 48.2822V52.8233H239.03V48.5009C239.03 46.5267 237.429 44.9265 235.455 44.9265H235.458Z" fill="white"/>
<path d="M225.204 41.7124C225.69 42.198 225.69 42.9868 225.204 43.4739C224.719 43.9611 223.93 43.9596 223.443 43.4739C222.956 42.9883 222.957 42.1995 223.443 41.7124C223.929 41.2267 224.717 41.2267 225.204 41.7124Z" fill="white"/>
<path d="M260.057 50.5973C259.687 50.8824 259.226 51.0543 258.722 51.0543C257.514 51.0543 256.537 50.0755 256.537 48.8674C256.537 47.6594 257.516 46.6806 258.722 46.6806C259.019 46.6806 259.301 46.7409 259.559 46.8465C259.763 46.9279 259.935 46.8947 260.087 46.7454C260.238 46.5991 260.349 46.4332 260.423 46.2538C260.497 46.0743 260.535 45.8782 260.533 45.6671C260.53 45.4529 260.431 45.3111 260.23 45.2252C259.766 45.0321 259.256 44.925 258.722 44.925C256.546 44.925 254.781 46.6896 254.781 48.8659C254.781 51.0422 256.546 52.8068 258.722 52.8068C259.461 52.8068 260.15 52.6002 260.742 52.2458L260.057 50.5943V50.5973Z" fill="white"/>
<path d="M268.888 45.5038H268.887C268.884 45.2821 268.788 45.1343 268.589 45.0499C268.395 44.9669 268.199 44.9262 268.003 44.9262C267.807 44.9262 267.602 44.9669 267.407 45.0499C267.209 45.1343 267.113 45.2821 267.11 45.5038V45.5355C266.457 45.1208 265.743 44.9111 264.967 44.9111C264.953 44.9111 264.94 44.9126 264.925 44.9141C264.906 44.9141 264.888 44.9111 264.87 44.9111C263.959 44.9111 263.14 45.2143 262.412 45.8191C261.984 46.172 261.643 46.6063 261.389 47.1236C261.376 47.1523 261.367 47.1809 261.353 47.2081C261.305 47.3106 261.26 47.4132 261.22 47.5188C261.21 47.5474 261.201 47.5776 261.19 47.6062C261.154 47.7103 261.122 47.8159 261.095 47.9215C261.088 47.9486 261.08 47.9758 261.074 48.0029C261.047 48.1236 261.026 48.2442 261.009 48.3679C261.005 48.4041 261.002 48.4418 260.997 48.4795C260.985 48.5956 260.978 48.7133 260.976 48.8339C260.976 48.843 260.975 48.852 260.975 48.8611C260.975 48.8641 260.975 48.8671 260.975 48.8701C260.975 48.8731 260.975 48.8761 260.975 48.8792C260.975 48.8882 260.975 48.8973 260.976 48.9063C260.976 49.0254 260.985 49.1431 260.997 49.2607C261 49.2984 261.005 49.3346 261.009 49.3723C261.026 49.496 261.047 49.6167 261.074 49.7373C261.08 49.7645 261.088 49.7916 261.095 49.8187C261.122 49.9258 261.154 50.0299 261.19 50.134C261.201 50.1626 261.21 50.1928 261.22 50.2214C261.26 50.3255 261.305 50.4296 261.353 50.5321C261.367 50.5608 261.376 50.5894 261.389 50.6166C261.641 51.1339 261.982 51.5682 262.412 51.9211C263.14 52.5259 263.959 52.8291 264.87 52.8291C264.888 52.8291 264.906 52.8276 264.925 52.8261C264.938 52.8261 264.952 52.8291 264.967 52.8291C265.742 52.8291 266.457 52.6209 267.11 52.2047V52.8215H268.882V52.722H268.89V49.6031C268.89 49.4613 268.89 49.3286 268.887 49.2019V48.4885C268.89 48.3784 268.89 48.2638 268.89 48.1401V45.6351V45.5084L268.888 45.5038ZM266.368 50.5185C266.006 50.8262 265.576 50.9921 265.081 51.0178C265.05 51.0178 265.02 51.0223 264.986 51.0223C264.359 51.0193 263.83 50.7945 263.4 50.3466C263.009 49.9439 262.812 49.4508 262.81 48.8671C262.812 48.2834 263.008 47.7902 263.4 47.3876C263.83 46.9396 264.359 46.7149 264.986 46.7119C265.018 46.7119 265.05 46.7149 265.081 46.7164C265.576 46.7436 266.006 46.908 266.368 47.2156C266.846 47.6334 267.092 48.1809 267.108 48.852V48.8792C267.092 49.5518 266.846 50.0978 266.368 50.5155V50.5185Z" fill="white"/>
<path d="M282.603 49.5383C282.968 49.5383 283.267 49.2396 283.268 48.8747C283.268 46.6576 281.44 44.8674 279.208 44.9278C277.148 44.9851 275.43 46.7014 275.375 48.7615C275.313 50.9936 277.103 52.8216 279.322 52.8216C281.015 52.8216 282.455 51.7523 283.017 50.2546H281.086C281.053 50.2969 281.027 50.3406 280.991 50.3813C280.557 50.8564 280.005 51.0947 279.335 51.0947C278.741 51.0947 278.237 50.9047 277.819 50.5216C277.513 50.2411 277.316 49.9093 277.207 49.5367H282.605L282.603 49.5383ZM279.361 46.6546C279.907 46.6667 280.377 46.8401 280.771 47.1749C281.063 47.4313 281.263 47.739 281.388 48.0874H277.246C277.347 47.8174 277.501 47.5701 277.714 47.3514C278.16 46.8869 278.709 46.6546 279.362 46.6546H279.361Z" fill="white"/>
<path d="M274.387 45.2334C274.3 45.0283 274.147 44.9303 273.918 44.9272C271.944 44.9272 270.344 46.5274 270.344 48.5016V52.8241H272.389V48.2829C272.389 47.4384 273.074 46.7552 273.917 46.7552C274.146 46.7521 274.298 46.6541 274.386 46.449C274.472 46.2469 274.514 46.0448 274.514 45.8427C274.514 45.6406 274.472 45.437 274.386 45.2364L274.387 45.2334Z" fill="white"/>
</g>
<path d="M195.512 20.3449V10.3657H196.892V11.5422H197.01C197.092 11.391 197.21 11.2162 197.364 11.0177C197.519 10.8193 197.733 10.646 198.007 10.498C198.281 10.3468 198.643 10.2712 199.094 10.2712C199.68 10.2712 200.203 10.4192 200.663 10.7153C201.122 11.0114 201.483 11.4382 201.745 11.9958C202.009 12.5533 202.141 13.2243 202.141 14.0086C202.141 14.793 202.011 15.4655 201.749 16.0262C201.488 16.5838 201.129 17.0138 200.672 17.3162C200.215 17.6154 199.694 17.765 199.108 17.765C198.667 17.765 198.306 17.691 198.026 17.543C197.749 17.3949 197.531 17.2217 197.374 17.0232C197.216 16.8248 197.095 16.6484 197.01 16.494H196.925V20.3449H195.512ZM196.897 13.9945C196.897 14.5048 196.971 14.9521 197.119 15.3364C197.267 15.7207 197.481 16.0215 197.761 16.2389C198.042 16.4531 198.385 16.5602 198.791 16.5602C199.213 16.5602 199.566 16.4483 199.85 16.2247C200.133 15.9979 200.348 15.6908 200.492 15.3033C200.64 14.9159 200.714 14.4796 200.714 13.9945C200.714 13.5157 200.642 13.0857 200.497 12.7045C200.355 12.3234 200.141 12.0226 199.855 11.8021C199.571 11.5816 199.217 11.4713 198.791 11.4713C198.382 11.4713 198.035 11.5768 197.752 11.7879C197.472 11.9989 197.259 12.2935 197.114 12.6715C196.969 13.0495 196.897 13.4905 196.897 13.9945ZM205.836 17.7839C205.377 17.7839 204.961 17.6989 204.589 17.5288C204.217 17.3555 203.923 17.1051 203.705 16.7775C203.491 16.4499 203.384 16.0483 203.384 15.5726C203.384 15.1631 203.463 14.8261 203.62 14.5615C203.778 14.2969 203.99 14.0874 204.258 13.933C204.526 13.7787 204.825 13.6621 205.156 13.5834C205.487 13.5046 205.824 13.4448 206.167 13.4038C206.602 13.3534 206.955 13.3125 207.226 13.281C207.496 13.2463 207.693 13.1912 207.816 13.1156C207.939 13.04 208 12.9172 208 12.7471V12.714C208 12.3013 207.884 11.9816 207.651 11.7548C207.421 11.528 207.078 11.4146 206.621 11.4146C206.145 11.4146 205.77 11.5201 205.496 11.7312C205.225 11.9391 205.038 12.1706 204.934 12.4258L203.606 12.1234C203.764 11.6824 203.994 11.3264 204.296 11.0555C204.602 10.7815 204.953 10.583 205.35 10.4602C205.747 10.3342 206.164 10.2712 206.602 10.2712C206.892 10.2712 207.199 10.3058 207.523 10.3751C207.851 10.4413 208.156 10.5641 208.44 10.7437C208.727 10.9232 208.961 11.1799 209.144 11.5138C209.327 11.8446 209.418 12.2746 209.418 12.8038V17.6233H208.038V16.631H207.982C207.89 16.8137 207.753 16.9933 207.57 17.1697C207.388 17.3461 207.153 17.4926 206.866 17.6091C206.58 17.7257 206.236 17.7839 205.836 17.7839ZM206.144 16.6499C206.534 16.6499 206.868 16.5728 207.145 16.4184C207.426 16.2641 207.638 16.0625 207.783 15.8136C207.931 15.5616 208.005 15.2923 208.005 15.0056V14.0701C207.955 14.1205 207.857 14.1677 207.712 14.2118C207.57 14.2528 207.408 14.289 207.226 14.3205C207.043 14.3489 206.865 14.3756 206.692 14.4008C206.518 14.4229 206.373 14.4418 206.257 14.4575C205.983 14.4922 205.732 14.5505 205.506 14.6324C205.282 14.7143 205.102 14.8324 204.967 14.9867C204.835 15.1379 204.769 15.3395 204.769 15.5915C204.769 15.9412 204.898 16.2058 205.156 16.3853C205.414 16.5617 205.743 16.6499 206.144 16.6499ZM211.3 17.6233V10.3657H212.665V11.5186H212.741C212.873 11.128 213.106 10.8208 213.44 10.5972C213.777 10.3704 214.158 10.257 214.584 10.257C214.672 10.257 214.776 10.2601 214.895 10.2664C215.018 10.2727 215.114 10.2806 215.184 10.2901V11.6414C215.127 11.6257 215.026 11.6083 214.881 11.5894C214.736 11.5674 214.591 11.5564 214.447 11.5564C214.113 11.5564 213.815 11.6272 213.554 11.769C213.295 11.9076 213.09 12.1013 212.939 12.3502C212.788 12.5959 212.712 12.8762 212.712 13.1912V17.6233H211.3ZM220.223 10.3657V11.4997H216.259V10.3657H220.223ZM217.322 8.62685H218.735V15.4923C218.735 15.7664 218.775 15.9727 218.857 16.1113C218.939 16.2467 219.045 16.3397 219.174 16.3901C219.306 16.4373 219.45 16.4609 219.604 16.4609C219.717 16.4609 219.817 16.4531 219.902 16.4373C219.987 16.4216 220.053 16.409 220.1 16.3995L220.355 17.5666C220.273 17.5981 220.157 17.6296 220.006 17.6611C219.854 17.6957 219.665 17.7146 219.439 17.7178C219.067 17.7241 218.72 17.6579 218.399 17.5193C218.078 17.3807 217.818 17.1665 217.619 16.8767C217.421 16.5869 217.322 16.2231 217.322 15.7853V8.62685ZM223.199 13.3141V17.6233H221.786V10.3657H223.142V11.5469H223.232C223.399 11.1626 223.66 10.8539 224.016 10.6208C224.375 10.3877 224.827 10.2712 225.372 10.2712C225.867 10.2712 226.3 10.3751 226.671 10.583C227.043 10.7878 227.331 11.0933 227.536 11.4997C227.741 11.906 227.843 12.4084 227.843 13.0069V17.6233H226.43V13.177C226.43 12.651 226.293 12.2399 226.019 11.9438C225.745 11.6446 225.369 11.4949 224.89 11.4949C224.562 11.4949 224.271 11.5658 224.016 11.7076C223.764 11.8493 223.564 12.0572 223.416 12.3313C223.271 12.6022 223.199 12.9298 223.199 13.3141ZM232.733 17.7698C232.018 17.7698 231.402 17.617 230.885 17.3114C230.372 17.0027 229.975 16.5696 229.695 16.0121C229.417 15.4514 229.279 14.7946 229.279 14.0417C229.279 13.2983 229.417 12.6431 229.695 12.0761C229.975 11.5091 230.366 11.0665 230.866 10.7484C231.37 10.4302 231.96 10.2712 232.634 10.2712C233.043 10.2712 233.44 10.3389 233.824 10.4743C234.209 10.6098 234.554 10.8224 234.859 11.1122C235.165 11.402 235.406 11.7784 235.582 12.2415C235.758 12.7014 235.847 13.2605 235.847 13.9189V14.4197H230.077V13.3613H234.462C234.462 12.9896 234.387 12.6604 234.235 12.3738C234.084 12.084 233.872 11.8556 233.598 11.6887C233.327 11.5217 233.008 11.4382 232.643 11.4382C232.246 11.4382 231.9 11.5359 231.604 11.7312C231.311 11.9233 231.084 12.1753 230.923 12.4872C230.766 12.7959 230.687 13.1314 230.687 13.4936V14.3205C230.687 14.8056 230.772 15.2183 230.942 15.5585C231.115 15.8987 231.356 16.1585 231.665 16.3381C231.974 16.5145 232.334 16.6027 232.747 16.6027C233.015 16.6027 233.259 16.5649 233.479 16.4893C233.7 16.4105 233.89 16.294 234.051 16.1396C234.212 15.9853 234.335 15.7947 234.42 15.5679L235.757 15.8089C235.65 16.2026 235.458 16.5476 235.18 16.8437C234.906 17.1366 234.561 17.365 234.146 17.5288C233.733 17.6894 233.262 17.7698 232.733 17.7698ZM237.414 17.6233V10.3657H238.78V11.5186H238.855C238.988 11.128 239.221 10.8208 239.555 10.5972C239.892 10.3704 240.273 10.257 240.698 10.257C240.786 10.257 240.89 10.2601 241.01 10.2664C241.133 10.2727 241.229 10.2806 241.298 10.2901V11.6414C241.241 11.6257 241.141 11.6083 240.996 11.5894C240.851 11.5674 240.706 11.5564 240.561 11.5564C240.227 11.5564 239.929 11.6272 239.668 11.769C239.41 11.9076 239.205 12.1013 239.054 12.3502C238.903 12.5959 238.827 12.8762 238.827 13.1912V17.6233H237.414Z" fill="white"/>
<path d="M195.512 20.3449V10.3657H196.892V11.5422H197.01C197.092 11.391 197.21 11.2162 197.364 11.0177C197.519 10.8193 197.733 10.646 198.007 10.498C198.281 10.3468 198.643 10.2712 199.094 10.2712C199.68 10.2712 200.203 10.4192 200.663 10.7153C201.122 11.0114 201.483 11.4382 201.745 11.9958C202.009 12.5533 202.141 13.2243 202.141 14.0086C202.141 14.793 202.011 15.4655 201.749 16.0262C201.488 16.5838 201.129 17.0138 200.672 17.3162C200.215 17.6154 199.694 17.765 199.108 17.765C198.667 17.765 198.306 17.691 198.026 17.543C197.749 17.3949 197.531 17.2217 197.374 17.0232C197.216 16.8248 197.095 16.6484 197.01 16.494H196.925V20.3449H195.512ZM196.897 13.9945C196.897 14.5048 196.971 14.9521 197.119 15.3364C197.267 15.7207 197.481 16.0215 197.761 16.2389C198.042 16.4531 198.385 16.5602 198.791 16.5602C199.213 16.5602 199.566 16.4483 199.85 16.2247C200.133 15.9979 200.348 15.6908 200.492 15.3033C200.64 14.9159 200.714 14.4796 200.714 13.9945C200.714 13.5157 200.642 13.0857 200.497 12.7045C200.355 12.3234 200.141 12.0226 199.855 11.8021C199.571 11.5816 199.217 11.4713 198.791 11.4713C198.382 11.4713 198.035 11.5768 197.752 11.7879C197.472 11.9989 197.259 12.2935 197.114 12.6715C196.969 13.0495 196.897 13.4905 196.897 13.9945ZM205.836 17.7839C205.377 17.7839 204.961 17.6989 204.589 17.5288C204.217 17.3555 203.923 17.1051 203.705 16.7775C203.491 16.4499 203.384 16.0483 203.384 15.5726C203.384 15.1631 203.463 14.8261 203.62 14.5615C203.778 14.2969 203.99 14.0874 204.258 13.933C204.526 13.7787 204.825 13.6621 205.156 13.5834C205.487 13.5046 205.824 13.4448 206.167 13.4038C206.602 13.3534 206.955 13.3125 207.226 13.281C207.496 13.2463 207.693 13.1912 207.816 13.1156C207.939 13.04 208 12.9172 208 12.7471V12.714C208 12.3013 207.884 11.9816 207.651 11.7548C207.421 11.528 207.078 11.4146 206.621 11.4146C206.145 11.4146 205.77 11.5201 205.496 11.7312C205.225 11.9391 205.038 12.1706 204.934 12.4258L203.606 12.1234C203.764 11.6824 203.994 11.3264 204.296 11.0555C204.602 10.7815 204.953 10.583 205.35 10.4602C205.747 10.3342 206.164 10.2712 206.602 10.2712C206.892 10.2712 207.199 10.3058 207.523 10.3751C207.851 10.4413 208.156 10.5641 208.44 10.7437C208.727 10.9232 208.961 11.1799 209.144 11.5138C209.327 11.8446 209.418 12.2746 209.418 12.8038V17.6233H208.038V16.631H207.982C207.89 16.8137 207.753 16.9933 207.57 17.1697C207.388 17.3461 207.153 17.4926 206.866 17.6091C206.58 17.7257 206.236 17.7839 205.836 17.7839ZM206.144 16.6499C206.534 16.6499 206.868 16.5728 207.145 16.4184C207.426 16.2641 207.638 16.0625 207.783 15.8136C207.931 15.5616 208.005 15.2923 208.005 15.0056V14.0701C207.955 14.1205 207.857 14.1677 207.712 14.2118C207.57 14.2528 207.408 14.289 207.226 14.3205C207.043 14.3489 206.865 14.3756 206.692 14.4008C206.518 14.4229 206.373 14.4418 206.257 14.4575C205.983 14.4922 205.732 14.5505 205.506 14.6324C205.282 14.7143 205.102 14.8324 204.967 14.9867C204.835 15.1379 204.769 15.3395 204.769 15.5915C204.769 15.9412 204.898 16.2058 205.156 16.3853C205.414 16.5617 205.743 16.6499 206.144 16.6499ZM211.3 17.6233V10.3657H212.665V11.5186H212.741C212.873 11.128 213.106 10.8208 213.44 10.5972C213.777 10.3704 214.158 10.257 214.584 10.257C214.672 10.257 214.776 10.2601 214.895 10.2664C215.018 10.2727 215.114 10.2806 215.184 10.2901V11.6414C215.127 11.6257 215.026 11.6083 214.881 11.5894C214.736 11.5674 214.591 11.5564 214.447 11.5564C214.113 11.5564 213.815 11.6272 213.554 11.769C213.295 11.9076 213.09 12.1013 212.939 12.3502C212.788 12.5959 212.712 12.8762 212.712 13.1912V17.6233H211.3ZM220.223 10.3657V11.4997H216.259V10.3657H220.223ZM217.322 8.62685H218.735V15.4923C218.735 15.7664 218.775 15.9727 218.857 16.1113C218.939 16.2467 219.045 16.3397 219.174 16.3901C219.306 16.4373 219.45 16.4609 219.604 16.4609C219.717 16.4609 219.817 16.4531 219.902 16.4373C219.987 16.4216 220.053 16.409 220.1 16.3995L220.355 17.5666C220.273 17.5981 220.157 17.6296 220.006 17.6611C219.854 17.6957 219.665 17.7146 219.439 17.7178C219.067 17.7241 218.72 17.6579 218.399 17.5193C218.078 17.3807 217.818 17.1665 217.619 16.8767C217.421 16.5869 217.322 16.2231 217.322 15.7853V8.62685ZM223.199 13.3141V17.6233H221.786V10.3657H223.142V11.5469H223.232C223.399 11.1626 223.66 10.8539 224.016 10.6208C224.375 10.3877 224.827 10.2712 225.372 10.2712C225.867 10.2712 226.3 10.3751 226.671 10.583C227.043 10.7878 227.331 11.0933 227.536 11.4997C227.741 11.906 227.843 12.4084 227.843 13.0069V17.6233H226.43V13.177C226.43 12.651 226.293 12.2399 226.019 11.9438C225.745 11.6446 225.369 11.4949 224.89 11.4949C224.562 11.4949 224.271 11.5658 224.016 11.7076C223.764 11.8493 223.564 12.0572 223.416 12.3313C223.271 12.6022 223.199 12.9298 223.199 13.3141ZM232.733 17.7698C232.018 17.7698 231.402 17.617 230.885 17.3114C230.372 17.0027 229.975 16.5696 229.695 16.0121C229.417 15.4514 229.279 14.7946 229.279 14.0417C229.279 13.2983 229.417 12.6431 229.695 12.0761C229.975 11.5091 230.366 11.0665 230.866 10.7484C231.37 10.4302 231.96 10.2712 232.634 10.2712C233.043 10.2712 233.44 10.3389 233.824 10.4743C234.209 10.6098 234.554 10.8224 234.859 11.1122C235.165 11.402 235.406 11.7784 235.582 12.2415C235.758 12.7014 235.847 13.2605 235.847 13.9189V14.4197H230.077V13.3613H234.462C234.462 12.9896 234.387 12.6604 234.235 12.3738C234.084 12.084 233.872 11.8556 233.598 11.6887C233.327 11.5217 233.008 11.4382 232.643 11.4382C232.246 11.4382 231.9 11.5359 231.604 11.7312C231.311 11.9233 231.084 12.1753 230.923 12.4872C230.766 12.7959 230.687 13.1314 230.687 13.4936V14.3205C230.687 14.8056 230.772 15.2183 230.942 15.5585C231.115 15.8987 231.356 16.1585 231.665 16.3381C231.974 16.5145 232.334 16.6027 232.747 16.6027C233.015 16.6027 233.259 16.5649 233.479 16.4893C233.7 16.4105 233.89 16.294 234.051 16.1396C234.212 15.9853 234.335 15.7947 234.42 15.5679L235.757 15.8089C235.65 16.2026 235.458 16.5476 235.18 16.8437C234.906 17.1366 234.561 17.365 234.146 17.5288C233.733 17.6894 233.262 17.7698 232.733 17.7698ZM237.414 17.6233V10.3657H238.78V11.5186H238.855C238.988 11.128 239.221 10.8208 239.555 10.5972C239.892 10.3704 240.273 10.257 240.698 10.257C240.786 10.257 240.89 10.2601 241.01 10.2664C241.133 10.2727 241.229 10.2806 241.298 10.2901V11.6414C241.241 11.6257 241.141 11.6083 240.996 11.5894C240.851 11.5674 240.706 11.5564 240.561 11.5564C240.227 11.5564 239.929 11.6272 239.668 11.769C239.41 11.9076 239.205 12.1013 239.054 12.3502C238.903 12.5959 238.827 12.8762 238.827 13.1912V17.6233H237.414Z" fill="white"/>
<defs>
<clipPath id="clip0_133_4722">
<rect width="161.895" height="62" fill="white"/>
</clipPath>
<clipPath id="clip1_133_4722">
<rect width="97.54" height="28.6765" fill="white" transform="translate(194.414 24.1487)"/>
</clipPath>
</defs>
</svg>
