<svg width="128" height="50" viewBox="0 0 128 50" fill="none" xmlns="http://www.w3.org/2000/svg">
<g clip-path="url(#clip0_4029_101)">
<path d="M0 23.4626V7.45599H3.60414V9.25806H3.87672C4.52032 8.16016 5.86051 7.05469 7.97303 7.05469C10.0855 7.05469 11.6983 8.1223 12.5236 9.65179H12.7962C13.7124 8.06173 15.3025 7.05469 17.4983 7.05469C20.9207 7.05469 23.2755 9.56093 23.2755 12.8319V23.4626H19.6411V14.0207C19.6411 11.6659 18.422 10.4771 16.6502 10.4771C14.8784 10.4771 13.4398 11.7264 13.4398 14.0207V23.4626H9.83567V13.5967C9.83567 11.6432 8.4879 10.4771 6.78426 10.4771C5.08063 10.4771 3.60414 11.8552 3.60414 13.9601V23.4626H0Z" fill="#130983"/>
<path d="M30.2575 13.7481H38.6924C38.5107 11.5826 36.7086 10.2045 34.5053 10.2045C32.3019 10.2045 30.4695 11.8249 30.2575 13.7481ZM34.6567 23.8639C29.7654 23.8639 26.502 20.3809 26.502 15.4896C26.502 10.5983 30.197 7.05469 34.5053 7.05469C39.3966 7.05469 42.3571 10.5983 42.3571 15.3609V16.3679H30.2272C30.2575 19.0559 31.999 20.7671 34.6264 20.7671C36.3982 20.7671 38.0791 19.8509 38.6621 18.0791L41.9634 18.8742C40.9261 22.2057 37.9883 23.8563 34.6643 23.8563L34.6567 23.8639Z" fill="#130983"/>
<path d="M52.9721 20.5023C55.6904 20.5023 57.4622 18.208 57.4622 15.4898C57.4622 12.3097 55.4178 10.447 52.9419 10.447C50.4659 10.447 48.4215 12.5217 48.4215 15.4898C48.4215 18.4579 50.4659 20.5023 52.9721 20.5023ZM52.3967 23.8641C48.0884 23.8641 44.7871 20.3206 44.7871 15.4595C44.7871 10.5985 47.8764 7.05489 52.1771 7.05489C55.0165 7.05489 56.3946 8.58438 57.0987 9.50056H57.3713V0.550781H60.9755V23.4628H57.4319V21.5699H57.1593C56.4854 22.3952 55.1755 23.8641 52.3967 23.8641Z" fill="#130983"/>
<path d="M67.147 23.4626V10.6361H64.3379V7.45598H70.7511V23.4626H67.147ZM68.9794 4.98003C67.6619 4.98003 66.6851 4.00327 66.6851 2.71608C66.6851 1.42889 67.6619 0.482422 68.9794 0.482422C70.2968 0.482422 71.2736 1.45917 71.2736 2.71608C71.2736 3.97299 70.2968 4.98003 68.9794 4.98003Z" fill="#130983"/>
<path d="M75.6953 23.4626V7.45599H79.2995V9.28835H79.572C80.2762 8.0693 81.7375 7.05469 83.8803 7.05469C87.3936 7.05469 89.6273 9.68208 89.6273 12.9833V23.4626H86.0231V13.839C86.0231 11.8552 84.6148 10.4771 82.7824 10.4771C80.7987 10.4771 79.2995 12.0066 79.2995 14.0207V23.4626H75.6953Z" fill="#130983"/>
<path d="M101.128 23.8639C96.1463 23.8639 92.8223 20.1386 92.8223 15.4593C92.8223 10.78 96.2144 7.05469 101.098 7.05469C104.854 7.05469 108.004 9.15963 108.92 13.0439L105.497 13.8692C105.073 11.7946 103.362 10.4771 101.189 10.4771C98.4102 10.4771 96.5173 12.6426 96.5173 15.4593C96.5173 18.276 98.4708 20.4415 101.219 20.4415C103.385 20.4415 105.096 19.1619 105.528 17.0797L108.95 17.905C108.034 21.7817 104.884 23.8639 101.128 23.8639Z" fill="#130983"/>
<path d="M119.535 20.4415C122.344 20.4415 124.327 18.3366 124.327 15.4593C124.327 12.582 122.344 10.4771 119.535 10.4771C116.725 10.4771 114.772 12.6123 114.772 15.4593C114.772 18.3063 116.756 20.4415 119.535 20.4415ZM119.535 23.8639C114.613 23.8639 111.1 20.2598 111.1 15.4593C111.1 10.6588 114.643 7.05469 119.565 7.05469C124.486 7.05469 128 10.6891 128 15.4593C128 20.2295 124.456 23.8639 119.535 23.8639Z" fill="#130983"/>
<path d="M111.062 44.5805V35.237H109.025V33.3971H113.182V44.5805H111.062ZM112.137 31.5345C111.319 31.5345 110.721 30.9136 110.721 30.0958C110.721 29.3235 111.319 28.7026 112.137 28.7026C112.954 28.7026 113.575 29.3235 113.575 30.0958C113.575 30.9136 112.977 31.5345 112.137 31.5345ZM101.074 44.5805V33.3971H103.172V35.1537H103.323C103.709 34.2073 104.8 33.117 106.322 33.117H107.117V35.237H106.049C104.118 35.237 103.202 36.7135 103.202 38.8336V44.573H101.082L101.074 44.5805ZM74.6945 44.5805V33.3971H76.8146V34.8509H76.9888C77.4582 33.9044 78.5712 33.117 80.1992 33.117C82.7281 33.117 84.2879 35.0023 84.2879 37.4025V44.5805H82.1678V37.766C82.1678 36.1835 81.0093 35.1083 79.5934 35.1083C78.0261 35.1083 76.807 36.3274 76.807 37.9553V44.573H74.687L74.6945 44.5805ZM62.2466 49.5097V47.5789H63.6852C64.5863 47.5789 65.033 47.1928 65.3586 46.3978L66.0628 44.573H65.5252L61.5424 33.3895H63.8594L66.7972 42.5362H66.9714L70.1439 33.3895H72.476L67.1379 47.3366C66.5625 48.8358 65.3813 49.5022 63.6701 49.5022H62.2542L62.2466 49.5097ZM53.9177 44.5805V33.3971H56.0151V35.1537H56.1665C56.5527 34.2073 57.643 33.117 59.1649 33.117H59.9599V35.237H58.8923C56.9615 35.237 56.0454 36.7135 56.0454 38.8336V44.573H53.9253L53.9177 44.5805ZM42.5071 37.9401H49.0415C48.9355 36.0321 47.4969 34.9872 45.8084 34.9872C44.1199 34.9872 42.6586 36.2289 42.5071 37.9401ZM45.9068 44.8607C42.4996 44.8607 40.2962 42.4377 40.2962 39.0153C40.2962 35.5929 42.8024 33.1245 45.8008 33.1245C49.2081 33.1245 51.1995 35.5475 51.1995 38.8866V39.5529H42.4768C42.4995 41.7411 43.8246 43.0208 45.9068 43.0208C47.3 43.0208 48.6099 42.2485 48.9885 40.8553L50.9799 41.3474C50.2909 43.5508 48.3449 44.8607 45.8993 44.8607H45.9068ZM36.3437 44.5805C34.2464 44.5805 32.8532 43.6189 32.8532 41.302V35.237H30.8164V33.3971H32.9819V30.2018H34.9733V33.3971H38.2745V35.237H34.9733V41.2793C34.9733 42.2863 35.3821 42.7179 36.3665 42.7179H38.1458V44.5805H36.3437ZM20.6476 37.9401H27.182C27.076 36.0321 25.6373 34.9872 23.9488 34.9872C22.2603 34.9872 20.799 36.2289 20.6476 37.9401ZM24.0548 44.8607C20.6476 44.8607 18.4442 42.4377 18.4442 39.0153C18.4442 35.5929 20.9504 33.1245 23.9488 33.1245C27.3561 33.1245 29.3475 35.5475 29.3475 38.8866V39.5529H20.6248C20.6476 41.7411 21.9726 43.0208 24.0548 43.0208C25.448 43.0208 26.7579 42.2485 27.1365 40.8553L29.1279 41.3474C28.4389 43.5508 26.4929 44.8607 24.0473 44.8607H24.0548ZM3.31588 44.5805L0.105469 33.3971H2.3997L4.75451 42.5892H4.90594L7.35161 33.3971H10.1153L12.5382 42.5892H12.6897L15.0672 33.3971H17.3387L14.1283 44.5805H11.2132L8.79024 35.4112H8.66152L6.26128 44.5805H3.32345H3.31588Z" fill="#130983"/>
<path d="M124.775 33.3969V35.0021H124.601C124.169 34.4039 123.147 33.1167 120.982 33.1167C117.9 33.1167 115.734 35.6229 115.734 38.9848C115.734 42.3466 118.006 44.8529 121.11 44.8529C123.336 44.8529 124.237 43.5657 124.624 43.0281H124.775V44.5727H126.895V33.3893H124.775V33.3969ZM121.368 42.9145C119.422 42.9145 117.877 41.3699 117.877 39.0151C117.877 36.6603 119.354 35.0929 121.345 35.0929C123.336 35.0929 124.836 36.5315 124.836 39.0151C124.836 41.1352 123.488 42.9145 121.368 42.9145Z" fill="#130983"/>
<path d="M95.8727 33.3969V35.0021H95.6985C95.2669 34.4039 94.2447 33.1167 92.0792 33.1167C88.9975 33.1167 86.832 35.6229 86.832 38.9848C86.832 42.3466 89.1035 44.8529 92.208 44.8529C94.434 44.8529 95.3351 43.5657 95.7212 43.0281H95.8727V44.5727H97.9928V33.3893H95.8727V33.3969ZM92.4654 42.9145C90.5195 42.9145 88.9748 41.3699 88.9748 39.0151C88.9748 36.6603 90.4513 35.0929 92.4427 35.0929C94.434 35.0929 95.9332 36.5315 95.9332 39.0151C95.9332 41.1352 94.5855 42.9145 92.4654 42.9145Z" fill="#130983"/>
</g>
<defs>
<clipPath id="clip0_4029_101">
<rect width="128" height="49.0193" fill="white" transform="translate(0 0.490234)"/>
</clipPath>
</defs>
</svg>
