<svg width="326" height="124" viewBox="0 0 326 124" fill="none" xmlns="http://www.w3.org/2000/svg">
<path d="M0 58.5139V17.7409H9.18169V22.3318H9.88199C11.516 19.5306 14.9397 16.7294 20.3087 16.7294C25.9111 16.7294 29.8016 19.4527 31.9025 23.3433H32.6028C34.9371 19.2971 38.9833 16.7294 44.5857 16.7294C53.3005 16.7294 59.292 23.1099 59.292 31.4356V58.5139H50.0325V34.4703C50.0325 28.4788 46.92 25.4442 42.407 25.4442C37.9718 25.4442 34.2368 28.6344 34.2368 34.4703V58.5139H25.0551V33.3809C25.0551 28.401 21.6315 25.4442 17.274 25.4442C12.8388 25.4442 9.18169 28.9457 9.18169 34.3146V58.5139H0Z" fill="#40FF7C"/>
<path d="M88.2644 59.5254C75.8146 59.5254 67.4889 50.6549 67.4889 38.2052C67.4889 25.3664 76.904 16.7294 87.8753 16.7294C100.325 16.7294 107.873 25.7554 107.873 37.8939V40.4617H76.9818C77.0596 47.3091 81.4948 51.6665 88.1866 51.6665C92.6996 51.6665 96.9792 49.3322 98.4576 44.8191L106.861 46.8422C104.216 55.3236 96.7458 59.5254 88.2644 59.5254ZM77.0596 33.77H98.5354C98.0686 28.2454 93.4777 24.7439 87.8753 24.7439C82.0395 24.7439 77.6043 28.8679 77.0596 33.77Z" fill="#40FF7C"/>
<path d="M133.444 59.5254C122.473 59.5254 114.069 50.4993 114.069 38.1274C114.069 25.9889 121.928 16.7294 132.899 16.7294C140.136 16.7294 143.637 20.6199 145.427 22.9542H146.127V0.15562H155.309V58.5139H146.283V53.6896H145.583C143.871 55.7905 140.525 59.5254 133.444 59.5254ZM134.922 50.9662C141.848 50.9662 146.361 45.1304 146.361 38.2052C146.361 30.1129 141.147 25.3664 134.845 25.3664C128.308 25.3664 123.329 30.6575 123.329 38.2052C123.329 45.9085 128.542 50.9662 134.922 50.9662Z" fill="#40FF7C"/>
<path d="M175.677 11.4382C172.331 11.4382 169.841 8.94826 169.841 5.6802C169.841 2.48995 172.331 0 175.677 0C179.023 0 181.513 2.48995 181.513 5.6802C181.513 8.94826 179.023 11.4382 175.677 11.4382ZM171.008 58.5139V25.8332H163.85V17.7409H180.19V58.5139H171.008Z" fill="#40FF7C"/>
<path d="M192.78 58.5139V17.7409H201.961V22.4096H202.662C204.451 19.2971 208.186 16.7294 213.633 16.7294C222.581 16.7294 228.262 23.4211 228.262 31.8247V58.5139H219.08V34.0034C219.08 28.9457 215.501 25.4442 210.832 25.4442C205.774 25.4442 201.961 29.3347 201.961 34.4703V58.5139H192.78Z" fill="#40FF7C"/>
<path d="M257.573 59.5254C244.89 59.5254 236.409 50.0325 236.409 38.1274C236.409 26.2223 245.046 16.7294 257.495 16.7294C267.066 16.7294 275.081 22.0983 277.415 31.9803L268.7 34.0812C267.611 28.7901 263.253 25.4442 257.729 25.4442C250.648 25.4442 245.824 30.9688 245.824 38.1274C245.824 45.4416 250.804 50.8106 257.807 50.8106C263.331 50.8106 267.689 47.5425 268.778 42.2514L277.493 44.3523C275.158 54.2343 267.144 59.5254 257.573 59.5254Z" fill="#40FF7C"/>
<path d="M304.446 59.5254C291.919 59.5254 282.971 50.3437 282.971 38.1274C282.971 25.9889 291.997 16.7294 304.524 16.7294C317.052 16.7294 326 25.9889 326 38.1274C326 50.2659 316.974 59.5254 304.446 59.5254ZM304.446 50.8106C311.605 50.8106 316.663 45.4416 316.663 38.1274C316.663 30.891 311.605 25.4442 304.446 25.4442C297.288 25.4442 292.308 30.891 292.308 38.1274C292.308 45.5194 297.366 50.8106 304.446 50.8106Z" fill="#40FF7C"/>
<path d="M9.09789 111.71L1.16368 84.0995H6.82342L12.6418 106.791H13.0121L19.0421 84.0995H25.8655L31.8426 106.791H32.2129L38.0842 84.0995H43.691L35.7568 111.71H28.5631L22.586 89.0716H22.2687L16.3445 111.71H9.09789Z" fill="#40FF7C"/>
<path d="M60.3004 112.398C51.8901 112.398 46.442 106.421 46.442 97.9579C46.442 89.2303 52.6306 83.4118 60.0359 83.4118C68.4462 83.4118 73.3654 89.3889 73.3654 97.6405V99.2802H51.8372C51.8901 104.676 55.1696 107.849 60.3004 107.849C63.7385 107.849 66.9651 105.945 67.9172 102.507L72.8364 103.723C71.1438 109.172 66.3304 112.398 60.3004 112.398ZM51.8901 95.3131H68.023C67.7585 90.6055 64.2146 88.0137 60.0359 88.0137C55.8043 88.0137 52.2604 91.0816 51.8901 95.3131Z" fill="#40FF7C"/>
<path d="M91.3301 111.71C86.1465 111.71 82.7083 109.33 82.7083 103.618V88.6484H77.6833V84.0995H83.0257V76.2182H87.9449V84.0995H96.0907V88.6484H87.9449V103.565C87.9449 106.051 88.9499 107.109 91.383 107.109H95.7733V111.71H91.3301Z" fill="#40FF7C"/>
<path d="M114.951 112.398C106.541 112.398 101.093 106.421 101.093 97.9579C101.093 89.2303 107.282 83.4118 114.687 83.4118C123.097 83.4118 128.016 89.3889 128.016 97.6405V99.2802H106.488C106.541 104.676 109.821 107.849 114.951 107.849C118.389 107.849 121.616 105.945 122.568 102.507L127.487 103.723C125.795 109.172 120.981 112.398 114.951 112.398ZM106.541 95.3131H122.674C122.409 90.6055 118.866 88.0137 114.687 88.0137C110.455 88.0137 106.911 91.0816 106.541 95.3131Z" fill="#40FF7C"/>
<path d="M134.715 111.71V84.0995H139.898V88.4368H140.269C141.221 86.1095 143.918 83.4118 147.674 83.4118H149.631V88.6484H146.986C142.226 88.6484 139.951 92.2981 139.951 97.5347V111.71H134.715Z" fill="#40FF7C"/>
<path d="M155.291 123.876V119.116H158.835C161.057 119.116 162.168 118.164 162.961 116.207L164.707 111.71H163.384L153.546 84.0995H159.259L166.505 106.686H166.928L174.757 84.0995H180.522L167.351 118.534C165.923 122.237 163.014 123.876 158.782 123.876H155.291Z" fill="#40FF7C"/>
<path d="M186.008 111.71V84.0995H191.245V87.6963H191.668C192.831 85.3689 195.582 83.4118 199.602 83.4118C205.843 83.4118 209.705 88.0666 209.705 93.9908V111.71H204.468V94.89C204.468 90.9758 201.612 88.331 198.121 88.331C194.26 88.331 191.245 91.346 191.245 95.366V111.71H186.008Z" fill="#40FF7C"/>
<path d="M229.147 112.398C221.477 112.398 215.87 106.315 215.87 97.905C215.87 89.6005 221.213 83.4118 228.83 83.4118C234.172 83.4118 236.711 86.5855 237.769 88.0666H238.192V84.0995H243.428V105.681C243.428 106.527 243.957 106.95 244.804 106.95H246.073V111.71H242.318C240.043 111.71 238.298 110.282 238.298 107.902H237.927C236.975 109.224 234.648 112.398 229.147 112.398ZM229.782 107.585C235.018 107.585 238.351 103.194 238.351 97.9579C238.351 91.8221 234.436 88.2781 229.729 88.2781C224.81 88.2781 221.16 92.2981 221.16 97.9579C221.16 103.776 224.968 107.585 229.782 107.585Z" fill="#40FF7C"/>
<path d="M253.056 111.71V84.0995H258.24V88.4368H258.61C259.562 86.1095 262.26 83.4118 266.015 83.4118H267.972V88.6484H265.328C260.567 88.6484 258.293 92.2981 258.293 97.5347V111.71H253.056Z" fill="#40FF7C"/>
<path d="M280.369 79.4976C278.359 79.4976 276.878 77.9637 276.878 75.9537C276.878 74.0495 278.359 72.5155 280.369 72.5155C282.432 72.5155 283.913 74.0495 283.913 75.9537C283.913 77.9637 282.432 79.4976 280.369 79.4976ZM277.724 111.71V88.6484H272.699V84.0995H282.961V111.71H277.724Z" fill="#40FF7C"/>
<path d="M303.737 112.398C296.067 112.398 290.46 106.315 290.46 97.905C290.46 89.6005 295.802 83.4118 303.419 83.4118C308.762 83.4118 311.301 86.5855 312.358 88.0666H312.782V84.0995H318.018V105.681C318.018 106.527 318.547 106.95 319.393 106.95H320.663V111.71H316.907C314.633 111.71 312.887 110.282 312.887 107.902H312.517C311.565 109.224 309.238 112.398 303.737 112.398ZM304.371 107.585C309.608 107.585 312.94 103.194 312.94 97.9579C312.94 91.8221 309.026 88.2781 304.319 88.2781C299.399 88.2781 295.75 92.2981 295.75 97.9579C295.75 103.776 299.558 107.585 304.371 107.585Z" fill="#40FF7C"/>
</svg>
