<svg width="1440" height="2202" viewBox="0 0 1440 2202" fill="none" xmlns="http://www.w3.org/2000/svg" opacity="0.15">
<path d="M333.423 1064.43C389.066 1108.06 461.532 1099.98 520.286 1133.9C579.041 1167.83 601.151 1243.12 656.888 1282.51C774.716 1365.66 998.852 1309.82 1025.73 1172.96C1042.64 1086.77 995.689 1056.89 969.02 988.526C930.38 889.265 944.262 675.017 842.743 591.724C741.224 508.432 634.382 533.544 597.021 561.751C540.278 604.556 534.412 647.619 498.406 679.242C470.235 704.019 414.047 739.381 414.047 739.381C414.047 739.381 358.457 777.307 339.763 804.643C314.472 841.483 298.301 897.591 294.066 942.15C287.893 1007.36 322.737 1056.04 333.527 1064.49L333.423 1064.43Z" stroke="#F7BBBB" stroke-width="4" stroke-linecap="round" stroke-linejoin="round" />
<path d="M184.822 967.819C190.77 1020.2 193.025 1072.25 222.729 1117.82C270.998 1192 363.777 1184.28 431.854 1228.72C497.034 1271.2 510.42 1345.76 562.016 1398.56C690.426 1530.38 887.315 1559.2 1037.84 1450.74C1074.96 1423.92 1268.57 1311.92 1173.34 1093.32C1142.24 1021.84 1095.61 975.792 1062.18 905.462C1042.64 864.372 1034.24 800.871 1023.59 756.872C987.893 609.53 945.604 486.809 798.971 423.78C683.669 368.442 564.258 456.872 525.867 515.681C499.504 556.06 483.719 602.132 451.073 638.745C416.869 677.094 349.689 705.555 306.932 734.944C270.629 759.879 239.827 793.536 219.264 832.273C189.916 887.429 183.881 958.402 184.986 967.775L184.822 967.819Z" stroke="#F7BBBB" stroke-width="4" stroke-linecap="round" stroke-linejoin="round"/>
<path d="M407.065 604.737C344.647 681.149 287.192 696.368 241.197 730.404C140.704 804.799 68.7842 894.305 69.3418 1026.63C69.8633 1147 119.614 1229.66 219.83 1294.32C277.112 1331.27 319.259 1335.36 373.843 1376.02C446.137 1429.96 457.037 1557.58 516 1628.37C546.815 1665.29 584.365 1731.62 747.175 1811.06C785.593 1829.77 971.416 1875.36 1178.02 1772.79C1221.16 1751.39 1316.22 1709.21 1394.86 1535.54C1464.31 1382.35 1450.91 1294.61 1405.03 1134.88C1373.04 1023.37 1252.38 898.8 1218.46 786.319C1204.41 739.802 1159.99 533.352 1144.19 475.701C1123.85 401.424 1076.05 292.574 927.412 227.972C881.954 208.244 808.69 198.251 745.363 214.516C683.265 225.53 615.296 284.177 565.286 336.694C524.405 379.645 492.885 430.636 472.173 486.203C459.013 521.726 438.08 566.628 406.841 604.885L407.065 604.737Z" stroke="#F7BBBB" stroke-width="4" stroke-linecap="round" stroke-linejoin="round"/>
<path d="M346.506 561.452C303.314 621.372 79.2303 742.684 30.7734 780.984C-107.543 890.39 -148.934 1074.47 -97.1452 1237.9C-57.7093 1362.44 97.8223 1397.33 175.04 1489.33C221.175 1544.39 249.665 1621.85 262.432 1691.47C311.776 1905.48 372.242 1966.46 441.389 2028.01C542.09 2117.76 649.298 2137.65 778.275 2148.89C916.184 2160.98 1058.97 2157.18 1188.26 2102.32C1299.49 2055.2 1530.95 1937.45 1627.07 1640.07C1670.77 1478.4 1686.08 1228.79 1603.76 1077.41C1543.92 967.567 1446.02 886.643 1396.5 769.728C1308.2 561.236 1296.91 323.582 1183.14 125.343C1073.5 -65.6547 870.69 -108.708 680.341 -24.2128C636.451 -4.62897 562.219 49.0164 562.219 49.0164C403.363 212.009 512.123 294.768 346.686 561.14L346.506 561.452Z" stroke="#F7BBBB" stroke-width="4" stroke-linecap="round" stroke-linejoin="round"/>
<path d="M217.304 403.39C175.786 485.629 137.096 518.059 -67.4302 638.877C-114.306 673.238 -225.585 761.51 -277.724 880.877C-328.657 1007.04 -345.952 1111.45 -324.542 1246.79C-307.613 1361.81 -204.784 1478.85 -158.002 1522.22C-101.845 1574.34 -23.5799 1618.41 10.1279 1691.39C59.2945 1798.12 60.799 1921.84 110.157 2028.95C141.475 2096.95 182.313 2177.51 234.717 2229.4C330.688 2324.46 480.731 2384.47 611.792 2419.23C718.442 2447.53 902.611 2486.61 1100.06 2440.74C1231.48 2410.27 1398.76 2306.91 1512.14 2230.11C1616.39 2159.55 1705.59 2068.93 1773.38 1963.03C1961.67 1669.09 1939.27 1423.78 1929.55 1330.39C1915.75 1197.22 1891.49 1049.28 1831.51 927.429C1765.1 792.447 1643.13 685.978 1595.52 541.741C1548.46 398.936 1501.43 253.927 1429.16 120.691C1358.59 -9.48373 1308.91 -140.772 1178.85 -226.262C1061.06 -303.699 913.421 -376.041 767.018 -337.165C380.36 -244.548 299.869 50.4867 294.991 105.766C290.217 161.106 264.619 310.632 217.304 403.39Z" stroke="#F7BBBB" stroke-width="4" stroke-linecap="round" stroke-linejoin="round"/>
<path d="M187.435 -140.465C64.7791 47.7259 98.1482 216.877 20.0406 304.612C-30.3743 361.193 -154.956 379.807 -305.478 514.196C-455.955 648.748 -553.101 824.214 -592.469 952.202C-664.359 1185.51 -665.162 1355.73 -550.318 1503.84C-475.754 1599.72 -330.278 1645.3 -258.876 1745.45C-217.046 1804.13 -190.677 1983.24 -171.537 2049.75C-146.53 2136.85 -138.565 2197.74 -49.6942 2315.19C39.1767 2432.63 260.156 2563.82 462.522 2630.46C904.657 2776.06 1173.18 2698.57 1404.17 2594.83C1505.63 2549.27 1794.19 2314.61 1908.07 2143.54C2060.22 1914.83 2185.04 1754.1 2215.28 1415.22C2245.52 1076.33 2090.89 912.602 2020.89 796.34C1973.78 717.981 1934.65 660.167 1901.94 613.553C1837.26 521.443 1787.01 420.193 1751.24 313.572C1630.64 -45.2853 1489.18 -300.275 1135.41 -474.993C936.21 -563.933 815.244 -604.656 530.808 -466.47C436.773 -420.792 309.883 -328.775 187.331 -140.525L187.435 -140.465Z" stroke="#F7BBBB" stroke-width="4" stroke-linecap="round" stroke-linejoin="round"/>
</svg>
